<svg width="1022" height="275" viewBox="0 0 1022 275" fill="none" xmlns="http://www.w3.org/2000/svg">
<g clip-path="url(#paint0_diamond_203_469_clip_path)" data-figma-skip-parse="true"><g transform="matrix(-0.13423 -0.134 0.13423 -0.082124 137.23 139)"><rect x="0" y="0" width="1007.46" height="1249.28" fill="url(#paint0_diamond_203_469)" opacity="1" shape-rendering="crispEdges"/><rect x="0" y="0" width="1007.46" height="1249.28" transform="scale(1 -1)" fill="url(#paint0_diamond_203_469)" opacity="1" shape-rendering="crispEdges"/><rect x="0" y="0" width="1007.46" height="1249.28" transform="scale(-1 1)" fill="url(#paint0_diamond_203_469)" opacity="1" shape-rendering="crispEdges"/><rect x="0" y="0" width="1007.46" height="1249.28" transform="scale(-1)" fill="url(#paint0_diamond_203_469)" opacity="1" shape-rendering="crispEdges"/></g></g><path d="M271.46 137.5C271.46 137.791 271.458 138.082 271.454 138.372C271.456 138.081 271.46 137.791 271.46 137.5ZM3 139C3 64.9939 62.9938 5 137 5C176.521 5 212.044 22.1107 236.57 49.3262C213.308 24.5145 180.236 9.01074 143.541 9.01074C90.4068 9.01074 44.8653 41.514 25.7109 87.7217C37.9786 76.6786 53.9321 70.5244 70.5205 70.5244C88.2838 70.5244 105.32 77.5805 117.881 90.1406C130.246 102.505 137.277 119.205 137.495 136.668L137.505 138.332C137.722 155.795 144.753 172.496 157.118 184.861C169.679 197.422 186.716 204.479 204.479 204.479C222.244 204.479 239.281 197.422 251.842 184.861C261.565 175.138 267.988 162.734 270.396 149.386C270.707 146.275 270.909 143.132 270.993 139.96C270.976 142.411 270.89 144.847 270.743 147.266C271.175 144.336 271.415 141.365 271.454 138.372C271.373 150.792 269.569 163.027 266.173 174.755C250.529 231.402 198.624 273 137 273C62.9938 273 3 213.006 3 139ZM46 142.546C46 145.907 46.4377 148.849 47.3125 151.37C48.2359 153.891 49.4998 156.019 51.1035 157.752C52.7072 159.485 54.6024 160.903 56.7891 162.006C59.0247 163.056 61.4794 163.818 64.1523 164.291C66.8254 164.764 69.6447 165 72.6094 165C75.4769 165 78.1985 164.764 80.7744 164.291C83.3989 163.818 85.8051 163.056 87.9922 162.006C90.2276 160.903 92.1719 159.485 93.8242 157.752C95.4766 156.019 96.7404 153.891 97.6152 151.37C98.5386 148.849 99 145.907 99 142.546V113H89.3037V141.442C89.3037 145.434 88.5506 148.481 87.0439 150.582C85.586 152.63 83.5934 154.048 81.0664 154.836C78.5877 155.571 75.7685 155.939 72.6094 155.939C69.3531 155.939 66.4372 155.571 63.8613 154.836C61.3341 154.048 59.3409 152.631 57.8828 150.582C56.4248 148.481 55.6963 145.434 55.6963 141.442V113H46V142.546Z" data-figma-gradient-fill="{&#34;type&#34;:&#34;GRADIENT_DIAMOND&#34;,&#34;stops&#34;:[{&#34;color&#34;:{&#34;r&#34;:0.91372549533843994,&#34;g&#34;:0.65098041296005249,&#34;b&#34;:0.21960784494876862,&#34;a&#34;:1.0},&#34;position&#34;:0.50},{&#34;color&#34;:{&#34;r&#34;:0.73333334922790527,&#34;g&#34;:0.42745098471641541,&#34;b&#34;:0.031372550874948502,&#34;a&#34;:1.0},&#34;position&#34;:1.0}],&#34;stopsVar&#34;:[{&#34;color&#34;:{&#34;r&#34;:0.91372549533843994,&#34;g&#34;:0.65098041296005249,&#34;b&#34;:0.21960784494876862,&#34;a&#34;:1.0},&#34;position&#34;:0.50},{&#34;color&#34;:{&#34;r&#34;:0.73333334922790527,&#34;g&#34;:0.42745098471641541,&#34;b&#34;:0.031372550874948502,&#34;a&#34;:1.0},&#34;position&#34;:1.0}],&#34;transform&#34;:{&#34;m00&#34;:-268.45996093750,&#34;m01&#34;:268.45996093750,&#34;m02&#34;:137.229980468750,&#34;m10&#34;:-268.0,&#34;m11&#34;:-164.24790954589844,&#34;m12&#34;:355.12396240234375},&#34;opacity&#34;:1.0,&#34;blendMode&#34;:&#34;NORMAL&#34;,&#34;visible&#34;:true}"/>
<path d="M178.027 146.068H189.126C189.346 147.918 190.195 149.604 191.675 151.128C193.21 152.596 195.21 153.766 197.677 154.637C200.143 155.453 202.911 155.861 205.98 155.861C208.775 155.861 211.077 155.561 212.886 154.963C214.695 154.364 216.038 153.521 216.915 152.433C217.792 151.345 218.23 150.04 218.23 148.516C218.23 147.047 217.682 145.932 216.586 145.171C215.49 144.355 213.763 143.702 211.406 143.212C209.049 142.668 205.953 142.124 202.116 141.58C199.102 141.145 196.251 140.546 193.566 139.785C190.88 138.969 188.496 137.935 186.413 136.684C184.385 135.433 182.768 133.909 181.563 132.114C180.412 130.265 179.836 128.089 179.836 125.586C179.836 122.485 180.713 119.765 182.467 117.426C184.276 115.087 186.934 113.264 190.442 111.958C193.949 110.653 198.252 110 203.349 110C211.023 110 216.915 111.632 221.025 114.896C225.191 118.106 227.219 122.54 227.109 128.197H216.421C216.202 124.988 214.832 122.676 212.311 121.261C209.844 119.847 206.72 119.139 202.938 119.139C199.43 119.139 196.526 119.656 194.224 120.69C191.976 121.724 190.853 123.492 190.853 125.994C190.853 126.973 191.127 127.844 191.675 128.605C192.223 129.313 193.155 129.938 194.47 130.482C195.786 131.026 197.567 131.543 199.814 132.033C202.061 132.522 204.857 133.012 208.2 133.501C211.324 133.937 214.147 134.535 216.668 135.297C219.244 136.004 221.436 136.956 223.245 138.153C225.109 139.295 226.534 140.764 227.52 142.559C228.507 144.355 229 146.558 229 149.169C229 152.379 228.15 155.181 226.451 157.574C224.807 159.913 222.231 161.736 218.723 163.042C215.27 164.347 210.776 165 205.24 165C201.294 165 197.814 164.592 194.799 163.776C191.785 162.906 189.181 161.763 186.989 160.349C184.796 158.934 183.015 157.384 181.645 155.697C180.275 154.011 179.288 152.324 178.685 150.638C178.137 148.952 177.918 147.428 178.027 146.068Z" fill="#E9A638"/>
<g clip-path="url(#paint1_diamond_203_469_clip_path)" data-figma-skip-parse="true"><g transform="matrix(0.550758 -0.25291 0.354749 0.210247 691.872 129.74)"><rect x="0" y="0" width="282.171" height="724.623" fill="url(#paint1_diamond_203_469)" opacity="1" shape-rendering="crispEdges"/><rect x="0" y="0" width="282.171" height="724.623" transform="scale(1 -1)" fill="url(#paint1_diamond_203_469)" opacity="1" shape-rendering="crispEdges"/><rect x="0" y="0" width="282.171" height="724.623" transform="scale(-1 1)" fill="url(#paint1_diamond_203_469)" opacity="1" shape-rendering="crispEdges"/><rect x="0" y="0" width="282.171" height="724.623" transform="scale(-1)" fill="url(#paint1_diamond_203_469)" opacity="1" shape-rendering="crispEdges"/></g></g><path d="M943.325 218.405H960.255C960.59 221.248 961.886 223.839 964.143 226.18C966.484 228.438 969.536 230.235 973.298 231.573C977.06 232.827 981.282 233.454 985.964 233.454C990.228 233.454 993.74 232.994 996.499 232.075C999.258 231.155 1001.31 229.859 1002.64 228.187C1003.98 226.515 1004.65 224.508 1004.65 222.167C1004.65 219.91 1003.81 218.196 1002.14 217.025C1000.47 215.771 997.836 214.768 994.241 214.016C990.646 213.18 985.922 212.344 980.07 211.507C975.472 210.839 971.124 209.919 967.027 208.748C962.931 207.494 959.294 205.906 956.117 203.983C953.023 202.06 950.557 199.719 948.718 196.96C946.962 194.117 946.084 190.773 946.084 186.927C946.084 182.162 947.422 177.981 950.097 174.386C952.856 170.791 956.911 167.99 962.262 165.984C967.613 163.977 974.176 162.974 981.951 162.974C993.656 162.974 1002.64 165.482 1008.91 170.498C1015.27 175.431 1018.36 182.245 1018.19 190.94H1001.89C1001.56 186.007 999.467 182.454 995.621 180.28C991.859 178.107 987.093 177.02 981.324 177.02C975.973 177.02 971.542 177.814 968.031 179.403C964.603 180.991 962.889 183.708 962.889 187.554C962.889 189.059 963.307 190.397 964.143 191.567C964.979 192.654 966.4 193.616 968.407 194.452C970.414 195.288 973.131 196.082 976.559 196.834C979.986 197.587 984.25 198.339 989.35 199.092C994.116 199.761 998.422 200.68 1002.27 201.851C1006.2 202.938 1009.54 204.401 1012.3 206.24C1015.14 207.996 1017.32 210.253 1018.82 213.012C1020.33 215.771 1021.08 219.157 1021.08 223.171C1021.08 228.103 1019.78 232.409 1017.19 236.088C1014.68 239.683 1010.75 242.484 1005.4 244.49C1000.14 246.497 993.28 247.5 984.836 247.5C978.816 247.5 973.507 246.873 968.909 245.619C964.31 244.281 960.339 242.525 956.995 240.352C953.65 238.178 950.933 235.795 948.843 233.203C946.753 230.612 945.248 228.02 944.328 225.428C943.492 222.836 943.158 220.495 943.325 218.405Z" data-figma-gradient-fill="{&#34;type&#34;:&#34;GRADIENT_DIAMOND&#34;,&#34;stops&#34;:[{&#34;color&#34;:{&#34;r&#34;:0.91372549533843994,&#34;g&#34;:0.65098041296005249,&#34;b&#34;:0.21960784494876862,&#34;a&#34;:1.0},&#34;position&#34;:0.50},{&#34;color&#34;:{&#34;r&#34;:0.73333334922790527,&#34;g&#34;:0.42745098471641541,&#34;b&#34;:0.031372550874948502,&#34;a&#34;:1.0},&#34;position&#34;:1.0}],&#34;stopsVar&#34;:[{&#34;color&#34;:{&#34;r&#34;:0.91372549533843994,&#34;g&#34;:0.65098041296005249,&#34;b&#34;:0.21960784494876862,&#34;a&#34;:1.0},&#34;position&#34;:0.50},{&#34;color&#34;:{&#34;r&#34;:0.73333334922790527,&#34;g&#34;:0.42745098471641541,&#34;b&#34;:0.031372550874948502,&#34;a&#34;:1.0},&#34;position&#34;:1.0}],&#34;transform&#34;:{&#34;m00&#34;:1101.515136718750,&#34;m01&#34;:709.49761962890625,&#34;m02&#34;:-213.63467407226562,&#34;m10&#34;:-505.81924438476562,&#34;m11&#34;:420.49359130859375,&#34;m12&#34;:172.40313720703125},&#34;opacity&#34;:1.0,&#34;blendMode&#34;:&#34;NORMAL&#34;,&#34;visible&#34;:true}"/>
<g clip-path="url(#paint2_diamond_203_469_clip_path)" data-figma-skip-parse="true"><g transform="matrix(0.550758 -0.25291 0.354749 0.210247 691.872 129.74)"><rect x="0" y="0" width="180.487" height="600.985" fill="url(#paint2_diamond_203_469)" opacity="1" shape-rendering="crispEdges"/><rect x="0" y="0" width="180.487" height="600.985" transform="scale(1 -1)" fill="url(#paint2_diamond_203_469)" opacity="1" shape-rendering="crispEdges"/><rect x="0" y="0" width="180.487" height="600.985" transform="scale(-1 1)" fill="url(#paint2_diamond_203_469)" opacity="1" shape-rendering="crispEdges"/><rect x="0" y="0" width="180.487" height="600.985" transform="scale(-1)" fill="url(#paint2_diamond_203_469)" opacity="1" shape-rendering="crispEdges"/></g></g><path d="M869.003 237.467H861.103L907.755 164.604H924.435V245.744H907.755V186.802L911.768 187.93L874.521 245.744H855.835L818.589 188.181L822.602 187.053V245.744H805.922V164.604H822.602L869.003 237.467Z" data-figma-gradient-fill="{&#34;type&#34;:&#34;GRADIENT_DIAMOND&#34;,&#34;stops&#34;:[{&#34;color&#34;:{&#34;r&#34;:0.91372549533843994,&#34;g&#34;:0.65098041296005249,&#34;b&#34;:0.21960784494876862,&#34;a&#34;:1.0},&#34;position&#34;:0.50},{&#34;color&#34;:{&#34;r&#34;:0.73333334922790527,&#34;g&#34;:0.42745098471641541,&#34;b&#34;:0.031372550874948502,&#34;a&#34;:1.0},&#34;position&#34;:1.0}],&#34;stopsVar&#34;:[{&#34;color&#34;:{&#34;r&#34;:0.91372549533843994,&#34;g&#34;:0.65098041296005249,&#34;b&#34;:0.21960784494876862,&#34;a&#34;:1.0},&#34;position&#34;:0.50},{&#34;color&#34;:{&#34;r&#34;:0.73333334922790527,&#34;g&#34;:0.42745098471641541,&#34;b&#34;:0.031372550874948502,&#34;a&#34;:1.0},&#34;position&#34;:1.0}],&#34;transform&#34;:{&#34;m00&#34;:1101.515136718750,&#34;m01&#34;:709.497558593750,&#34;m02&#34;:-213.63426208496094,&#34;m10&#34;:-505.81921386718750,&#34;m11&#34;:420.49356079101562,&#34;m12&#34;:172.40316772460938},&#34;opacity&#34;:1.0,&#34;blendMode&#34;:&#34;NORMAL&#34;,&#34;visible&#34;:true}"/>
<g clip-path="url(#paint3_diamond_203_469_clip_path)" data-figma-skip-parse="true"><g transform="matrix(0.550758 -0.25291 0.354749 0.210247 691.872 129.74)"><rect x="0" y="0" width="190.049" height="427.894" fill="url(#paint3_diamond_203_469)" opacity="1" shape-rendering="crispEdges"/><rect x="0" y="0" width="190.049" height="427.894" transform="scale(1 -1)" fill="url(#paint3_diamond_203_469)" opacity="1" shape-rendering="crispEdges"/><rect x="0" y="0" width="190.049" height="427.894" transform="scale(-1 1)" fill="url(#paint3_diamond_203_469)" opacity="1" shape-rendering="crispEdges"/><rect x="0" y="0" width="190.049" height="427.894" transform="scale(-1)" fill="url(#paint3_diamond_203_469)" opacity="1" shape-rendering="crispEdges"/></g></g><path d="M721.201 211.884V231.824H783.78V245.744H704.521V164.604H783.655V178.525H721.201V198.716H772.368V211.884H721.201Z" data-figma-gradient-fill="{&#34;type&#34;:&#34;GRADIENT_DIAMOND&#34;,&#34;stops&#34;:[{&#34;color&#34;:{&#34;r&#34;:0.91372549533843994,&#34;g&#34;:0.65098041296005249,&#34;b&#34;:0.21960784494876862,&#34;a&#34;:1.0},&#34;position&#34;:0.50},{&#34;color&#34;:{&#34;r&#34;:0.73333334922790527,&#34;g&#34;:0.42745098471641541,&#34;b&#34;:0.031372550874948502,&#34;a&#34;:1.0},&#34;position&#34;:1.0}],&#34;stopsVar&#34;:[{&#34;color&#34;:{&#34;r&#34;:0.91372549533843994,&#34;g&#34;:0.65098041296005249,&#34;b&#34;:0.21960784494876862,&#34;a&#34;:1.0},&#34;position&#34;:0.50},{&#34;color&#34;:{&#34;r&#34;:0.73333334922790527,&#34;g&#34;:0.42745098471641541,&#34;b&#34;:0.031372550874948502,&#34;a&#34;:1.0},&#34;position&#34;:1.0}],&#34;transform&#34;:{&#34;m00&#34;:1101.515136718750,&#34;m01&#34;:709.497558593750,&#34;m02&#34;:-213.63450622558594,&#34;m10&#34;:-505.81921386718750,&#34;m11&#34;:420.49356079101562,&#34;m12&#34;:172.40313720703125},&#34;opacity&#34;:1.0,&#34;blendMode&#34;:&#34;NORMAL&#34;,&#34;visible&#34;:true}"/>
<g clip-path="url(#paint4_diamond_203_469_clip_path)" data-figma-skip-parse="true"><g transform="matrix(0.550758 -0.25291 0.354749 0.210247 691.872 129.74)"><rect x="0" y="0" width="295.083" height="309.262" fill="url(#paint4_diamond_203_469)" opacity="1" shape-rendering="crispEdges"/><rect x="0" y="0" width="295.083" height="309.262" transform="scale(1 -1)" fill="url(#paint4_diamond_203_469)" opacity="1" shape-rendering="crispEdges"/><rect x="0" y="0" width="295.083" height="309.262" transform="scale(-1 1)" fill="url(#paint4_diamond_203_469)" opacity="1" shape-rendering="crispEdges"/><rect x="0" y="0" width="295.083" height="309.262" transform="scale(-1)" fill="url(#paint4_diamond_203_469)" opacity="1" shape-rendering="crispEdges"/></g></g><path d="M601.851 164.604H687.38V178.525H601.851V164.604ZM636.339 176.769H653.018V245.744H636.339V176.769Z" data-figma-gradient-fill="{&#34;type&#34;:&#34;GRADIENT_DIAMOND&#34;,&#34;stops&#34;:[{&#34;color&#34;:{&#34;r&#34;:0.91372549533843994,&#34;g&#34;:0.65098041296005249,&#34;b&#34;:0.21960784494876862,&#34;a&#34;:1.0},&#34;position&#34;:0.50},{&#34;color&#34;:{&#34;r&#34;:0.73333334922790527,&#34;g&#34;:0.42745098471641541,&#34;b&#34;:0.031372550874948502,&#34;a&#34;:1.0},&#34;position&#34;:1.0}],&#34;stopsVar&#34;:[{&#34;color&#34;:{&#34;r&#34;:0.91372549533843994,&#34;g&#34;:0.65098041296005249,&#34;b&#34;:0.21960784494876862,&#34;a&#34;:1.0},&#34;position&#34;:0.50},{&#34;color&#34;:{&#34;r&#34;:0.73333334922790527,&#34;g&#34;:0.42745098471641541,&#34;b&#34;:0.031372550874948502,&#34;a&#34;:1.0},&#34;position&#34;:1.0}],&#34;transform&#34;:{&#34;m00&#34;:1101.515136718750,&#34;m01&#34;:709.497558593750,&#34;m02&#34;:-213.6345214843750,&#34;m10&#34;:-505.81918334960938,&#34;m11&#34;:420.49356079101562,&#34;m12&#34;:172.40315246582031},&#34;opacity&#34;:1.0,&#34;blendMode&#34;:&#34;NORMAL&#34;,&#34;visible&#34;:true}"/>
<g clip-path="url(#paint5_diamond_203_469_clip_path)" data-figma-skip-parse="true"><g transform="matrix(0.550758 -0.25291 0.354749 0.210247 691.872 129.74)"><rect x="0" y="0" width="390.574" height="193.229" fill="url(#paint5_diamond_203_469)" opacity="1" shape-rendering="crispEdges"/><rect x="0" y="0" width="390.574" height="193.229" transform="scale(1 -1)" fill="url(#paint5_diamond_203_469)" opacity="1" shape-rendering="crispEdges"/><rect x="0" y="0" width="390.574" height="193.229" transform="scale(-1 1)" fill="url(#paint5_diamond_203_469)" opacity="1" shape-rendering="crispEdges"/><rect x="0" y="0" width="390.574" height="193.229" transform="scale(-1)" fill="url(#paint5_diamond_203_469)" opacity="1" shape-rendering="crispEdges"/></g></g><path d="M511.514 218.405H528.444C528.779 221.248 530.075 223.839 532.332 226.18C534.673 228.438 537.725 230.235 541.487 231.573C545.249 232.827 549.471 233.454 554.153 233.454C558.417 233.454 561.929 232.994 564.688 232.075C567.447 231.155 569.495 229.859 570.833 228.187C572.17 226.515 572.839 224.508 572.839 222.167C572.839 219.91 572.003 218.196 570.331 217.025C568.659 215.771 566.025 214.768 562.43 214.016C558.835 213.18 554.111 212.344 548.259 211.507C543.661 210.839 539.313 209.919 535.216 208.748C531.12 207.494 527.483 205.906 524.306 203.983C521.212 202.06 518.746 199.719 516.907 196.96C515.151 194.117 514.273 190.773 514.273 186.927C514.273 182.162 515.611 177.981 518.286 174.386C521.045 170.791 525.1 167.99 530.451 165.984C535.802 163.977 542.365 162.974 550.14 162.974C561.845 162.974 570.833 165.482 577.103 170.498C583.457 175.431 586.551 182.245 586.384 190.94H570.08C569.746 186.007 567.656 182.454 563.81 180.28C560.048 178.107 555.282 177.02 549.513 177.02C544.162 177.02 539.731 177.814 536.22 179.403C532.792 180.991 531.078 183.708 531.078 187.554C531.078 189.059 531.496 190.397 532.332 191.567C533.168 192.654 534.589 193.616 536.596 194.452C538.602 195.288 541.32 196.082 544.748 196.834C548.175 197.587 552.439 198.339 557.539 199.092C562.305 199.761 566.611 200.68 570.457 201.851C574.386 202.938 577.73 204.401 580.489 206.24C583.332 207.996 585.506 210.253 587.011 213.012C588.516 215.771 589.268 219.157 589.268 223.171C589.268 228.103 587.972 232.409 585.38 236.088C582.872 239.683 578.943 242.484 573.592 244.49C568.325 246.497 561.469 247.5 553.025 247.5C547.005 247.5 541.696 246.873 537.098 245.619C532.499 244.281 528.528 242.525 525.184 240.352C521.839 238.178 519.122 235.795 517.032 233.203C514.942 230.612 513.437 228.02 512.517 225.428C511.681 222.836 511.347 220.495 511.514 218.405Z" data-figma-gradient-fill="{&#34;type&#34;:&#34;GRADIENT_DIAMOND&#34;,&#34;stops&#34;:[{&#34;color&#34;:{&#34;r&#34;:0.91372549533843994,&#34;g&#34;:0.65098041296005249,&#34;b&#34;:0.21960784494876862,&#34;a&#34;:1.0},&#34;position&#34;:0.50},{&#34;color&#34;:{&#34;r&#34;:0.73333334922790527,&#34;g&#34;:0.42745098471641541,&#34;b&#34;:0.031372550874948502,&#34;a&#34;:1.0},&#34;position&#34;:1.0}],&#34;stopsVar&#34;:[{&#34;color&#34;:{&#34;r&#34;:0.91372549533843994,&#34;g&#34;:0.65098041296005249,&#34;b&#34;:0.21960784494876862,&#34;a&#34;:1.0},&#34;position&#34;:0.50},{&#34;color&#34;:{&#34;r&#34;:0.73333334922790527,&#34;g&#34;:0.42745098471641541,&#34;b&#34;:0.031372550874948502,&#34;a&#34;:1.0},&#34;position&#34;:1.0}],&#34;transform&#34;:{&#34;m00&#34;:1101.5150146484375,&#34;m01&#34;:709.49749755859375,&#34;m02&#34;:-213.63450622558594,&#34;m10&#34;:-505.81924438476562,&#34;m11&#34;:420.49359130859375,&#34;m12&#34;:172.40310668945312},&#34;opacity&#34;:1.0,&#34;blendMode&#34;:&#34;NORMAL&#34;,&#34;visible&#34;:true}"/>
<g clip-path="url(#paint6_diamond_203_469_clip_path)" data-figma-skip-parse="true"><g transform="matrix(0.550758 -0.25291 0.354749 0.210247 691.872 129.74)"><rect x="0" y="0" width="488.775" height="254.256" fill="url(#paint6_diamond_203_469)" opacity="1" shape-rendering="crispEdges"/><rect x="0" y="0" width="488.775" height="254.256" transform="scale(1 -1)" fill="url(#paint6_diamond_203_469)" opacity="1" shape-rendering="crispEdges"/><rect x="0" y="0" width="488.775" height="254.256" transform="scale(-1 1)" fill="url(#paint6_diamond_203_469)" opacity="1" shape-rendering="crispEdges"/><rect x="0" y="0" width="488.775" height="254.256" transform="scale(-1)" fill="url(#paint6_diamond_203_469)" opacity="1" shape-rendering="crispEdges"/></g></g><path d="M500.556 164.604L464.94 220.161V245.744H448.135V220.161L412.519 164.604H431.832L461.805 213.138H451.772L481.243 164.604H500.556Z" data-figma-gradient-fill="{&#34;type&#34;:&#34;GRADIENT_DIAMOND&#34;,&#34;stops&#34;:[{&#34;color&#34;:{&#34;r&#34;:0.91372549533843994,&#34;g&#34;:0.65098041296005249,&#34;b&#34;:0.21960784494876862,&#34;a&#34;:1.0},&#34;position&#34;:0.50},{&#34;color&#34;:{&#34;r&#34;:0.73333334922790527,&#34;g&#34;:0.42745098471641541,&#34;b&#34;:0.031372550874948502,&#34;a&#34;:1.0},&#34;position&#34;:1.0}],&#34;stopsVar&#34;:[{&#34;color&#34;:{&#34;r&#34;:0.91372549533843994,&#34;g&#34;:0.65098041296005249,&#34;b&#34;:0.21960784494876862,&#34;a&#34;:1.0},&#34;position&#34;:0.50},{&#34;color&#34;:{&#34;r&#34;:0.73333334922790527,&#34;g&#34;:0.42745098471641541,&#34;b&#34;:0.031372550874948502,&#34;a&#34;:1.0},&#34;position&#34;:1.0}],&#34;transform&#34;:{&#34;m00&#34;:1101.515136718750,&#34;m01&#34;:709.497558593750,&#34;m02&#34;:-213.63465881347656,&#34;m10&#34;:-505.81921386718750,&#34;m11&#34;:420.49356079101562,&#34;m12&#34;:172.40315246582031},&#34;opacity&#34;:1.0,&#34;blendMode&#34;:&#34;NORMAL&#34;,&#34;visible&#34;:true}"/>
<g clip-path="url(#paint7_diamond_203_469_clip_path)" data-figma-skip-parse="true"><g transform="matrix(0.550758 -0.25291 0.354749 0.210247 691.872 129.74)"><rect x="0" y="0" width="583.386" height="368.788" fill="url(#paint7_diamond_203_469)" opacity="1" shape-rendering="crispEdges"/><rect x="0" y="0" width="583.386" height="368.788" transform="scale(1 -1)" fill="url(#paint7_diamond_203_469)" opacity="1" shape-rendering="crispEdges"/><rect x="0" y="0" width="583.386" height="368.788" transform="scale(-1 1)" fill="url(#paint7_diamond_203_469)" opacity="1" shape-rendering="crispEdges"/><rect x="0" y="0" width="583.386" height="368.788" transform="scale(-1)" fill="url(#paint7_diamond_203_469)" opacity="1" shape-rendering="crispEdges"/></g></g><path d="M323.042 218.405H339.972C340.307 221.248 341.602 223.839 343.86 226.18C346.201 228.438 349.252 230.235 353.015 231.573C356.777 232.827 360.999 233.454 365.681 233.454C369.945 233.454 373.457 232.994 376.216 232.075C378.975 231.155 381.023 229.859 382.361 228.187C383.698 226.515 384.367 224.508 384.367 222.167C384.367 219.91 383.531 218.196 381.859 217.025C380.187 215.771 377.553 214.768 373.958 214.016C370.363 213.18 365.639 212.344 359.787 211.507C355.188 210.839 350.841 209.919 346.744 208.748C342.648 207.494 339.011 205.906 335.834 203.983C332.74 202.06 330.274 199.719 328.434 196.96C326.679 194.117 325.801 190.773 325.801 186.927C325.801 182.162 327.139 177.981 329.814 174.386C332.573 170.791 336.628 167.99 341.979 165.984C347.329 163.977 353.893 162.974 361.668 162.974C373.373 162.974 382.361 165.482 388.631 170.498C394.985 175.431 398.079 182.245 397.911 190.94H381.608C381.274 186.007 379.184 182.454 375.338 180.28C371.575 178.107 366.81 177.02 361.041 177.02C355.69 177.02 351.259 177.814 347.748 179.403C344.32 180.991 342.606 183.708 342.606 187.554C342.606 189.059 343.024 190.397 343.86 191.567C344.696 192.654 346.117 193.616 348.124 194.452C350.13 195.288 352.848 196.082 356.275 196.834C359.703 197.587 363.967 198.339 369.067 199.092C373.833 199.761 378.138 200.68 381.984 201.851C385.914 202.938 389.258 204.401 392.017 206.24C394.86 207.996 397.034 210.253 398.538 213.012C400.043 215.771 400.796 219.157 400.796 223.171C400.796 228.103 399.5 232.409 396.908 236.088C394.4 239.683 390.47 242.484 385.12 244.49C379.852 246.497 372.997 247.5 364.552 247.5C358.533 247.5 353.224 246.873 348.625 245.619C344.027 244.281 340.056 242.525 336.711 240.352C333.367 238.178 330.65 235.795 328.56 233.203C326.47 230.612 324.965 228.02 324.045 225.428C323.209 222.836 322.875 220.495 323.042 218.405Z" data-figma-gradient-fill="{&#34;type&#34;:&#34;GRADIENT_DIAMOND&#34;,&#34;stops&#34;:[{&#34;color&#34;:{&#34;r&#34;:0.91372549533843994,&#34;g&#34;:0.65098041296005249,&#34;b&#34;:0.21960784494876862,&#34;a&#34;:1.0},&#34;position&#34;:0.50},{&#34;color&#34;:{&#34;r&#34;:0.73333334922790527,&#34;g&#34;:0.42745098471641541,&#34;b&#34;:0.031372550874948502,&#34;a&#34;:1.0},&#34;position&#34;:1.0}],&#34;stopsVar&#34;:[{&#34;color&#34;:{&#34;r&#34;:0.91372549533843994,&#34;g&#34;:0.65098041296005249,&#34;b&#34;:0.21960784494876862,&#34;a&#34;:1.0},&#34;position&#34;:0.50},{&#34;color&#34;:{&#34;r&#34;:0.73333334922790527,&#34;g&#34;:0.42745098471641541,&#34;b&#34;:0.031372550874948502,&#34;a&#34;:1.0},&#34;position&#34;:1.0}],&#34;transform&#34;:{&#34;m00&#34;:1101.5150146484375,&#34;m01&#34;:709.49749755859375,&#34;m02&#34;:-213.63447570800781,&#34;m10&#34;:-505.81924438476562,&#34;m11&#34;:420.49359130859375,&#34;m12&#34;:172.40312194824219},&#34;opacity&#34;:1.0,&#34;blendMode&#34;:&#34;NORMAL&#34;,&#34;visible&#34;:true}"/>
<g clip-path="url(#paint8_diamond_203_469_clip_path)" data-figma-skip-parse="true"><g transform="matrix(0.527355 -0.242163 0.339675 0.201313 670.995 138.215)"><rect x="0" y="0" width="576.501" height="361.599" fill="url(#paint8_diamond_203_469)" opacity="1" shape-rendering="crispEdges"/><rect x="0" y="0" width="576.501" height="361.599" transform="scale(1 -1)" fill="url(#paint8_diamond_203_469)" opacity="1" shape-rendering="crispEdges"/><rect x="0" y="0" width="576.501" height="361.599" transform="scale(-1 1)" fill="url(#paint8_diamond_203_469)" opacity="1" shape-rendering="crispEdges"/><rect x="0" y="0" width="576.501" height="361.599" transform="scale(-1)" fill="url(#paint8_diamond_203_469)" opacity="1" shape-rendering="crispEdges"/></g></g><path d="M961.159 72.7705V91.8634H1021.08V105.192H945.188V27.5H1020.96V40.829H961.159V60.162H1010.15V72.7705H961.159Z" data-figma-gradient-fill="{&#34;type&#34;:&#34;GRADIENT_DIAMOND&#34;,&#34;stops&#34;:[{&#34;color&#34;:{&#34;r&#34;:0.91372549533843994,&#34;g&#34;:0.65098041296005249,&#34;b&#34;:0.21960784494876862,&#34;a&#34;:1.0},&#34;position&#34;:0.50},{&#34;color&#34;:{&#34;r&#34;:0.73333334922790527,&#34;g&#34;:0.42745098471641541,&#34;b&#34;:0.031372550874948502,&#34;a&#34;:1.0},&#34;position&#34;:1.0}],&#34;stopsVar&#34;:[{&#34;color&#34;:{&#34;r&#34;:0.91372549533843994,&#34;g&#34;:0.65098041296005249,&#34;b&#34;:0.21960784494876862,&#34;a&#34;:1.0},&#34;position&#34;:0.50},{&#34;color&#34;:{&#34;r&#34;:0.73333334922790527,&#34;g&#34;:0.42745098471641541,&#34;b&#34;:0.031372550874948502,&#34;a&#34;:1.0},&#34;position&#34;:1.0}],&#34;transform&#34;:{&#34;m00&#34;:1054.7103271484375,&#34;m01&#34;:679.350097656250,&#34;m02&#34;:-196.03556823730469,&#34;m10&#34;:-484.32635498046875,&#34;m11&#34;:402.62631225585938,&#34;m12&#34;:179.06462097167969},&#34;opacity&#34;:1.0,&#34;blendMode&#34;:&#34;NORMAL&#34;,&#34;visible&#34;:true}"/>
<g clip-path="url(#paint9_diamond_203_469_clip_path)" data-figma-skip-parse="true"><g transform="matrix(0.527355 -0.242163 0.339675 0.201313 670.995 138.215)"><rect x="0" y="0" width="472.43" height="236.41" fill="url(#paint9_diamond_203_469)" opacity="1" shape-rendering="crispEdges"/><rect x="0" y="0" width="472.43" height="236.41" transform="scale(1 -1)" fill="url(#paint9_diamond_203_469)" opacity="1" shape-rendering="crispEdges"/><rect x="0" y="0" width="472.43" height="236.41" transform="scale(-1 1)" fill="url(#paint9_diamond_203_469)" opacity="1" shape-rendering="crispEdges"/><rect x="0" y="0" width="472.43" height="236.41" transform="scale(-1)" fill="url(#paint9_diamond_203_469)" opacity="1" shape-rendering="crispEdges"/></g></g><path d="M841.177 105.192V27.5H893.893C899.897 27.5 905.1 28.3406 909.503 30.0217C913.986 31.6228 917.469 34.1845 919.95 37.7069C922.432 41.1492 923.673 45.5922 923.673 51.0359C923.673 54.7183 923.032 57.8404 921.752 60.4022C920.471 62.9639 918.669 65.0453 916.348 66.6464C914.106 68.2475 911.505 69.4883 908.543 70.3689C905.581 71.1694 902.419 71.6898 899.056 71.9299L897.375 70.9693C902.979 71.0493 907.582 71.5297 911.184 72.4103C914.787 73.2108 917.469 74.7318 919.23 76.9733C921.071 79.1348 921.992 82.377 921.992 86.6999V105.192H906.021V87.7806C906.021 84.8186 905.501 82.5371 904.46 80.936C903.419 79.2549 901.538 78.0941 898.816 77.4537C896.174 76.8132 892.332 76.493 887.288 76.493H857.148V105.192H841.177ZM857.148 64.0046H893.893C898.376 64.0046 901.778 62.9239 904.1 60.7624C906.501 58.601 907.702 55.679 907.702 51.9965C907.702 48.4741 906.501 45.7923 904.1 43.9511C901.778 42.1098 898.376 41.1892 893.893 41.1892H857.148V64.0046Z" data-figma-gradient-fill="{&#34;type&#34;:&#34;GRADIENT_DIAMOND&#34;,&#34;stops&#34;:[{&#34;color&#34;:{&#34;r&#34;:0.91372549533843994,&#34;g&#34;:0.65098041296005249,&#34;b&#34;:0.21960784494876862,&#34;a&#34;:1.0},&#34;position&#34;:0.50},{&#34;color&#34;:{&#34;r&#34;:0.73333334922790527,&#34;g&#34;:0.42745098471641541,&#34;b&#34;:0.031372550874948502,&#34;a&#34;:1.0},&#34;position&#34;:1.0}],&#34;stopsVar&#34;:[{&#34;color&#34;:{&#34;r&#34;:0.91372549533843994,&#34;g&#34;:0.65098041296005249,&#34;b&#34;:0.21960784494876862,&#34;a&#34;:1.0},&#34;position&#34;:0.50},{&#34;color&#34;:{&#34;r&#34;:0.73333334922790527,&#34;g&#34;:0.42745098471641541,&#34;b&#34;:0.031372550874948502,&#34;a&#34;:1.0},&#34;position&#34;:1.0}],&#34;transform&#34;:{&#34;m00&#34;:1054.7103271484375,&#34;m01&#34;:679.350097656250,&#34;m02&#34;:-196.03562927246094,&#34;m10&#34;:-484.32635498046875,&#34;m11&#34;:402.62628173828125,&#34;m12&#34;:179.06463623046875},&#34;opacity&#34;:1.0,&#34;blendMode&#34;:&#34;NORMAL&#34;,&#34;visible&#34;:true}"/>
<g clip-path="url(#paint10_diamond_203_469_clip_path)" data-figma-skip-parse="true"><g transform="matrix(0.527355 -0.242163 0.339675 0.201313 670.994 138.215)"><rect x="0" y="0" width="367.09" height="232.441" fill="url(#paint10_diamond_203_469)" opacity="1" shape-rendering="crispEdges"/><rect x="0" y="0" width="367.09" height="232.441" transform="scale(1 -1)" fill="url(#paint10_diamond_203_469)" opacity="1" shape-rendering="crispEdges"/><rect x="0" y="0" width="367.09" height="232.441" transform="scale(-1 1)" fill="url(#paint10_diamond_203_469)" opacity="1" shape-rendering="crispEdges"/><rect x="0" y="0" width="367.09" height="232.441" transform="scale(-1)" fill="url(#paint10_diamond_203_469)" opacity="1" shape-rendering="crispEdges"/></g></g><path d="M753.75 88.2609V74.932H805.145V88.2609H753.75ZM734.417 105.192L770.922 27.5H788.214L825.079 105.192H807.667L775.725 35.1852H783.41L751.709 105.192H734.417Z" data-figma-gradient-fill="{&#34;type&#34;:&#34;GRADIENT_DIAMOND&#34;,&#34;stops&#34;:[{&#34;color&#34;:{&#34;r&#34;:0.91372549533843994,&#34;g&#34;:0.65098041296005249,&#34;b&#34;:0.21960784494876862,&#34;a&#34;:1.0},&#34;position&#34;:0.50},{&#34;color&#34;:{&#34;r&#34;:0.73333334922790527,&#34;g&#34;:0.42745098471641541,&#34;b&#34;:0.031372550874948502,&#34;a&#34;:1.0},&#34;position&#34;:1.0}],&#34;stopsVar&#34;:[{&#34;color&#34;:{&#34;r&#34;:0.91372549533843994,&#34;g&#34;:0.65098041296005249,&#34;b&#34;:0.21960784494876862,&#34;a&#34;:1.0},&#34;position&#34;:0.50},{&#34;color&#34;:{&#34;r&#34;:0.73333334922790527,&#34;g&#34;:0.42745098471641541,&#34;b&#34;:0.031372550874948502,&#34;a&#34;:1.0},&#34;position&#34;:1.0}],&#34;transform&#34;:{&#34;m00&#34;:1054.7103271484375,&#34;m01&#34;:679.350097656250,&#34;m02&#34;:-196.03599548339844,&#34;m10&#34;:-484.32635498046875,&#34;m11&#34;:402.62628173828125,&#34;m12&#34;:179.06462097167969},&#34;opacity&#34;:1.0,&#34;blendMode&#34;:&#34;NORMAL&#34;,&#34;visible&#34;:true}"/>
<g clip-path="url(#paint11_diamond_203_469_clip_path)" data-figma-skip-parse="true"><g transform="matrix(0.527355 -0.242163 0.339675 0.201313 670.994 138.215)"><rect x="0" y="0" width="270.645" height="426.394" fill="url(#paint11_diamond_203_469)" opacity="1" shape-rendering="crispEdges"/><rect x="0" y="0" width="270.645" height="426.394" transform="scale(1 -1)" fill="url(#paint11_diamond_203_469)" opacity="1" shape-rendering="crispEdges"/><rect x="0" y="0" width="270.645" height="426.394" transform="scale(-1 1)" fill="url(#paint11_diamond_203_469)" opacity="1" shape-rendering="crispEdges"/><rect x="0" y="0" width="270.645" height="426.394" transform="scale(-1)" fill="url(#paint11_diamond_203_469)" opacity="1" shape-rendering="crispEdges"/></g></g><path d="M616.29 105.192L583.508 27.5H601.16L628.899 96.3064L623.735 96.4264L650.153 27.5H668.526L694.943 96.4264L689.78 96.3064L717.519 27.5H734.81L702.388 105.192H682.815L656.878 37.827H661.921L635.864 105.192H616.29Z" data-figma-gradient-fill="{&#34;type&#34;:&#34;GRADIENT_DIAMOND&#34;,&#34;stops&#34;:[{&#34;color&#34;:{&#34;r&#34;:0.91372549533843994,&#34;g&#34;:0.65098041296005249,&#34;b&#34;:0.21960784494876862,&#34;a&#34;:1.0},&#34;position&#34;:0.50},{&#34;color&#34;:{&#34;r&#34;:0.73333334922790527,&#34;g&#34;:0.42745098471641541,&#34;b&#34;:0.031372550874948502,&#34;a&#34;:1.0},&#34;position&#34;:1.0}],&#34;stopsVar&#34;:[{&#34;color&#34;:{&#34;r&#34;:0.91372549533843994,&#34;g&#34;:0.65098041296005249,&#34;b&#34;:0.21960784494876862,&#34;a&#34;:1.0},&#34;position&#34;:0.50},{&#34;color&#34;:{&#34;r&#34;:0.73333334922790527,&#34;g&#34;:0.42745098471641541,&#34;b&#34;:0.031372550874948502,&#34;a&#34;:1.0},&#34;position&#34;:1.0}],&#34;transform&#34;:{&#34;m00&#34;:1054.7103271484375,&#34;m01&#34;:679.350097656250,&#34;m02&#34;:-196.03640747070312,&#34;m10&#34;:-484.32635498046875,&#34;m11&#34;:402.62628173828125,&#34;m12&#34;:179.06465148925781},&#34;opacity&#34;:1.0,&#34;blendMode&#34;:&#34;NORMAL&#34;,&#34;visible&#34;:true}"/>
<g clip-path="url(#paint12_diamond_203_469_clip_path)" data-figma-skip-parse="true"><g transform="matrix(0.527355 -0.242163 0.339675 0.201313 670.994 138.215)"><rect x="0" y="0" width="89.0761" height="470.875" fill="url(#paint12_diamond_203_469)" opacity="1" shape-rendering="crispEdges"/><rect x="0" y="0" width="89.0761" height="470.875" transform="scale(1 -1)" fill="url(#paint12_diamond_203_469)" opacity="1" shape-rendering="crispEdges"/><rect x="0" y="0" width="89.0761" height="470.875" transform="scale(-1 1)" fill="url(#paint12_diamond_203_469)" opacity="1" shape-rendering="crispEdges"/><rect x="0" y="0" width="89.0761" height="470.875" transform="scale(-1)" fill="url(#paint12_diamond_203_469)" opacity="1" shape-rendering="crispEdges"/></g></g><path d="M548.899 27.5H564.87V105.192H548.899V27.5Z" data-figma-gradient-fill="{&#34;type&#34;:&#34;GRADIENT_DIAMOND&#34;,&#34;stops&#34;:[{&#34;color&#34;:{&#34;r&#34;:0.91372549533843994,&#34;g&#34;:0.65098041296005249,&#34;b&#34;:0.21960784494876862,&#34;a&#34;:1.0},&#34;position&#34;:0.50},{&#34;color&#34;:{&#34;r&#34;:0.73333334922790527,&#34;g&#34;:0.42745098471641541,&#34;b&#34;:0.031372550874948502,&#34;a&#34;:1.0},&#34;position&#34;:1.0}],&#34;stopsVar&#34;:[{&#34;color&#34;:{&#34;r&#34;:0.91372549533843994,&#34;g&#34;:0.65098041296005249,&#34;b&#34;:0.21960784494876862,&#34;a&#34;:1.0},&#34;position&#34;:0.50},{&#34;color&#34;:{&#34;r&#34;:0.73333334922790527,&#34;g&#34;:0.42745098471641541,&#34;b&#34;:0.031372550874948502,&#34;a&#34;:1.0},&#34;position&#34;:1.0}],&#34;transform&#34;:{&#34;m00&#34;:1054.7103271484375,&#34;m01&#34;:679.35003662109375,&#34;m02&#34;:-196.03614807128906,&#34;m10&#34;:-484.32635498046875,&#34;m11&#34;:402.62628173828125,&#34;m12&#34;:179.06463623046875},&#34;opacity&#34;:1.0,&#34;blendMode&#34;:&#34;NORMAL&#34;,&#34;visible&#34;:true}"/>
<g clip-path="url(#paint13_diamond_203_469_clip_path)" data-figma-skip-parse="true"><g transform="matrix(0.527355 -0.242163 0.339675 0.201313 670.994 138.215)"><rect x="0" y="0" width="197.003" height="619.09" fill="url(#paint13_diamond_203_469)" opacity="1" shape-rendering="crispEdges"/><rect x="0" y="0" width="197.003" height="619.09" transform="scale(1 -1)" fill="url(#paint13_diamond_203_469)" opacity="1" shape-rendering="crispEdges"/><rect x="0" y="0" width="197.003" height="619.09" transform="scale(-1 1)" fill="url(#paint13_diamond_203_469)" opacity="1" shape-rendering="crispEdges"/><rect x="0" y="0" width="197.003" height="619.09" transform="scale(-1)" fill="url(#paint13_diamond_203_469)" opacity="1" shape-rendering="crispEdges"/></g></g><path d="M512.35 89.3417L507.307 91.383V27.5H523.278V105.192H507.307L444.505 43.831L449.548 41.7896V105.192H433.577V27.5H449.548L512.35 89.3417Z" data-figma-gradient-fill="{&#34;type&#34;:&#34;GRADIENT_DIAMOND&#34;,&#34;stops&#34;:[{&#34;color&#34;:{&#34;r&#34;:0.91372549533843994,&#34;g&#34;:0.65098041296005249,&#34;b&#34;:0.21960784494876862,&#34;a&#34;:1.0},&#34;position&#34;:0.50},{&#34;color&#34;:{&#34;r&#34;:0.73333334922790527,&#34;g&#34;:0.42745098471641541,&#34;b&#34;:0.031372550874948502,&#34;a&#34;:1.0},&#34;position&#34;:1.0}],&#34;stopsVar&#34;:[{&#34;color&#34;:{&#34;r&#34;:0.91372549533843994,&#34;g&#34;:0.65098041296005249,&#34;b&#34;:0.21960784494876862,&#34;a&#34;:1.0},&#34;position&#34;:0.50},{&#34;color&#34;:{&#34;r&#34;:0.73333334922790527,&#34;g&#34;:0.42745098471641541,&#34;b&#34;:0.031372550874948502,&#34;a&#34;:1.0},&#34;position&#34;:1.0}],&#34;transform&#34;:{&#34;m00&#34;:1054.7103271484375,&#34;m01&#34;:679.350097656250,&#34;m02&#34;:-196.03620910644531,&#34;m10&#34;:-484.32635498046875,&#34;m11&#34;:402.62628173828125,&#34;m12&#34;:179.06463623046875},&#34;opacity&#34;:1.0,&#34;blendMode&#34;:&#34;NORMAL&#34;,&#34;visible&#34;:true}"/>
<g clip-path="url(#paint14_diamond_203_469_clip_path)" data-figma-skip-parse="true"><g transform="matrix(0.527355 -0.242163 0.339675 0.201313 670.994 138.215)"><rect x="0" y="0" width="317.961" height="761.207" fill="url(#paint14_diamond_203_469)" opacity="1" shape-rendering="crispEdges"/><rect x="0" y="0" width="317.961" height="761.207" transform="scale(1 -1)" fill="url(#paint14_diamond_203_469)" opacity="1" shape-rendering="crispEdges"/><rect x="0" y="0" width="317.961" height="761.207" transform="scale(-1 1)" fill="url(#paint14_diamond_203_469)" opacity="1" shape-rendering="crispEdges"/><rect x="0" y="0" width="317.961" height="761.207" transform="scale(-1)" fill="url(#paint14_diamond_203_469)" opacity="1" shape-rendering="crispEdges"/></g></g><path d="M394.328 70.8492V27.5H410.299V72.5303C410.299 77.6538 409.538 82.1368 408.017 85.9794C406.576 89.822 404.495 93.0642 401.773 95.706C399.051 98.3477 395.849 100.509 392.167 102.19C388.564 103.791 384.601 104.952 380.279 105.673C376.036 106.393 371.553 106.753 366.83 106.753C361.946 106.753 357.303 106.393 352.9 105.673C348.497 104.952 344.454 103.791 340.772 102.19C337.17 100.509 334.047 98.3477 331.406 95.706C328.764 93.0642 326.682 89.822 325.161 85.9794C323.72 82.1368 323 77.6538 323 72.5303V27.5H338.971V70.8492C338.971 76.9333 340.172 81.5764 342.573 84.7786C344.975 87.9007 348.257 90.0622 352.42 91.263C356.663 92.3837 361.466 92.9441 366.83 92.9441C372.033 92.9441 376.676 92.3837 380.759 91.263C384.922 90.0622 388.204 87.9007 390.606 84.7786C393.087 81.5764 394.328 76.9333 394.328 70.8492Z" data-figma-gradient-fill="{&#34;type&#34;:&#34;GRADIENT_DIAMOND&#34;,&#34;stops&#34;:[{&#34;color&#34;:{&#34;r&#34;:0.91372549533843994,&#34;g&#34;:0.65098041296005249,&#34;b&#34;:0.21960784494876862,&#34;a&#34;:1.0},&#34;position&#34;:0.50},{&#34;color&#34;:{&#34;r&#34;:0.73333334922790527,&#34;g&#34;:0.42745098471641541,&#34;b&#34;:0.031372550874948502,&#34;a&#34;:1.0},&#34;position&#34;:1.0}],&#34;stopsVar&#34;:[{&#34;color&#34;:{&#34;r&#34;:0.91372549533843994,&#34;g&#34;:0.65098041296005249,&#34;b&#34;:0.21960784494876862,&#34;a&#34;:1.0},&#34;position&#34;:0.50},{&#34;color&#34;:{&#34;r&#34;:0.73333334922790527,&#34;g&#34;:0.42745098471641541,&#34;b&#34;:0.031372550874948502,&#34;a&#34;:1.0},&#34;position&#34;:1.0}],&#34;transform&#34;:{&#34;m00&#34;:1054.7103271484375,&#34;m01&#34;:679.350097656250,&#34;m02&#34;:-196.03576660156250,&#34;m10&#34;:-484.32632446289062,&#34;m11&#34;:402.62628173828125,&#34;m12&#34;:179.06462097167969},&#34;opacity&#34;:1.0,&#34;blendMode&#34;:&#34;NORMAL&#34;,&#34;visible&#34;:true}"/>
<defs>
<clipPath id="paint0_diamond_203_469_clip_path"><path d="M271.46 137.5C271.46 137.791 271.458 138.082 271.454 138.372C271.456 138.081 271.46 137.791 271.46 137.5ZM3 139C3 64.9939 62.9938 5 137 5C176.521 5 212.044 22.1107 236.57 49.3262C213.308 24.5145 180.236 9.01074 143.541 9.01074C90.4068 9.01074 44.8653 41.514 25.7109 87.7217C37.9786 76.6786 53.9321 70.5244 70.5205 70.5244C88.2838 70.5244 105.32 77.5805 117.881 90.1406C130.246 102.505 137.277 119.205 137.495 136.668L137.505 138.332C137.722 155.795 144.753 172.496 157.118 184.861C169.679 197.422 186.716 204.479 204.479 204.479C222.244 204.479 239.281 197.422 251.842 184.861C261.565 175.138 267.988 162.734 270.396 149.386C270.707 146.275 270.909 143.132 270.993 139.96C270.976 142.411 270.89 144.847 270.743 147.266C271.175 144.336 271.415 141.365 271.454 138.372C271.373 150.792 269.569 163.027 266.173 174.755C250.529 231.402 198.624 273 137 273C62.9938 273 3 213.006 3 139ZM46 142.546C46 145.907 46.4377 148.849 47.3125 151.37C48.2359 153.891 49.4998 156.019 51.1035 157.752C52.7072 159.485 54.6024 160.903 56.7891 162.006C59.0247 163.056 61.4794 163.818 64.1523 164.291C66.8254 164.764 69.6447 165 72.6094 165C75.4769 165 78.1985 164.764 80.7744 164.291C83.3989 163.818 85.8051 163.056 87.9922 162.006C90.2276 160.903 92.1719 159.485 93.8242 157.752C95.4766 156.019 96.7404 153.891 97.6152 151.37C98.5386 148.849 99 145.907 99 142.546V113H89.3037V141.442C89.3037 145.434 88.5506 148.481 87.0439 150.582C85.586 152.63 83.5934 154.048 81.0664 154.836C78.5877 155.571 75.7685 155.939 72.6094 155.939C69.3531 155.939 66.4372 155.571 63.8613 154.836C61.3341 154.048 59.3409 152.631 57.8828 150.582C56.4248 148.481 55.6963 145.434 55.6963 141.442V113H46V142.546Z"/></clipPath><clipPath id="paint1_diamond_203_469_clip_path"><path d="M943.325 218.405H960.255C960.59 221.248 961.886 223.839 964.143 226.18C966.484 228.438 969.536 230.235 973.298 231.573C977.06 232.827 981.282 233.454 985.964 233.454C990.228 233.454 993.74 232.994 996.499 232.075C999.258 231.155 1001.31 229.859 1002.64 228.187C1003.98 226.515 1004.65 224.508 1004.65 222.167C1004.65 219.91 1003.81 218.196 1002.14 217.025C1000.47 215.771 997.836 214.768 994.241 214.016C990.646 213.18 985.922 212.344 980.07 211.507C975.472 210.839 971.124 209.919 967.027 208.748C962.931 207.494 959.294 205.906 956.117 203.983C953.023 202.06 950.557 199.719 948.718 196.96C946.962 194.117 946.084 190.773 946.084 186.927C946.084 182.162 947.422 177.981 950.097 174.386C952.856 170.791 956.911 167.99 962.262 165.984C967.613 163.977 974.176 162.974 981.951 162.974C993.656 162.974 1002.64 165.482 1008.91 170.498C1015.27 175.431 1018.36 182.245 1018.19 190.94H1001.89C1001.56 186.007 999.467 182.454 995.621 180.28C991.859 178.107 987.093 177.02 981.324 177.02C975.973 177.02 971.542 177.814 968.031 179.403C964.603 180.991 962.889 183.708 962.889 187.554C962.889 189.059 963.307 190.397 964.143 191.567C964.979 192.654 966.4 193.616 968.407 194.452C970.414 195.288 973.131 196.082 976.559 196.834C979.986 197.587 984.25 198.339 989.35 199.092C994.116 199.761 998.422 200.68 1002.27 201.851C1006.2 202.938 1009.54 204.401 1012.3 206.24C1015.14 207.996 1017.32 210.253 1018.82 213.012C1020.33 215.771 1021.08 219.157 1021.08 223.171C1021.08 228.103 1019.78 232.409 1017.19 236.088C1014.68 239.683 1010.75 242.484 1005.4 244.49C1000.14 246.497 993.28 247.5 984.836 247.5C978.816 247.5 973.507 246.873 968.909 245.619C964.31 244.281 960.339 242.525 956.995 240.352C953.65 238.178 950.933 235.795 948.843 233.203C946.753 230.612 945.248 228.02 944.328 225.428C943.492 222.836 943.158 220.495 943.325 218.405Z"/></clipPath><clipPath id="paint2_diamond_203_469_clip_path"><path d="M869.003 237.467H861.103L907.755 164.604H924.435V245.744H907.755V186.802L911.768 187.93L874.521 245.744H855.835L818.589 188.181L822.602 187.053V245.744H805.922V164.604H822.602L869.003 237.467Z"/></clipPath><clipPath id="paint3_diamond_203_469_clip_path"><path d="M721.201 211.884V231.824H783.78V245.744H704.521V164.604H783.655V178.525H721.201V198.716H772.368V211.884H721.201Z"/></clipPath><clipPath id="paint4_diamond_203_469_clip_path"><path d="M601.851 164.604H687.38V178.525H601.851V164.604ZM636.339 176.769H653.018V245.744H636.339V176.769Z"/></clipPath><clipPath id="paint5_diamond_203_469_clip_path"><path d="M511.514 218.405H528.444C528.779 221.248 530.075 223.839 532.332 226.18C534.673 228.438 537.725 230.235 541.487 231.573C545.249 232.827 549.471 233.454 554.153 233.454C558.417 233.454 561.929 232.994 564.688 232.075C567.447 231.155 569.495 229.859 570.833 228.187C572.17 226.515 572.839 224.508 572.839 222.167C572.839 219.91 572.003 218.196 570.331 217.025C568.659 215.771 566.025 214.768 562.43 214.016C558.835 213.18 554.111 212.344 548.259 211.507C543.661 210.839 539.313 209.919 535.216 208.748C531.12 207.494 527.483 205.906 524.306 203.983C521.212 202.06 518.746 199.719 516.907 196.96C515.151 194.117 514.273 190.773 514.273 186.927C514.273 182.162 515.611 177.981 518.286 174.386C521.045 170.791 525.1 167.99 530.451 165.984C535.802 163.977 542.365 162.974 550.14 162.974C561.845 162.974 570.833 165.482 577.103 170.498C583.457 175.431 586.551 182.245 586.384 190.94H570.08C569.746 186.007 567.656 182.454 563.81 180.28C560.048 178.107 555.282 177.02 549.513 177.02C544.162 177.02 539.731 177.814 536.22 179.403C532.792 180.991 531.078 183.708 531.078 187.554C531.078 189.059 531.496 190.397 532.332 191.567C533.168 192.654 534.589 193.616 536.596 194.452C538.602 195.288 541.32 196.082 544.748 196.834C548.175 197.587 552.439 198.339 557.539 199.092C562.305 199.761 566.611 200.68 570.457 201.851C574.386 202.938 577.73 204.401 580.489 206.24C583.332 207.996 585.506 210.253 587.011 213.012C588.516 215.771 589.268 219.157 589.268 223.171C589.268 228.103 587.972 232.409 585.38 236.088C582.872 239.683 578.943 242.484 573.592 244.49C568.325 246.497 561.469 247.5 553.025 247.5C547.005 247.5 541.696 246.873 537.098 245.619C532.499 244.281 528.528 242.525 525.184 240.352C521.839 238.178 519.122 235.795 517.032 233.203C514.942 230.612 513.437 228.02 512.517 225.428C511.681 222.836 511.347 220.495 511.514 218.405Z"/></clipPath><clipPath id="paint6_diamond_203_469_clip_path"><path d="M500.556 164.604L464.94 220.161V245.744H448.135V220.161L412.519 164.604H431.832L461.805 213.138H451.772L481.243 164.604H500.556Z"/></clipPath><clipPath id="paint7_diamond_203_469_clip_path"><path d="M323.042 218.405H339.972C340.307 221.248 341.602 223.839 343.86 226.18C346.201 228.438 349.252 230.235 353.015 231.573C356.777 232.827 360.999 233.454 365.681 233.454C369.945 233.454 373.457 232.994 376.216 232.075C378.975 231.155 381.023 229.859 382.361 228.187C383.698 226.515 384.367 224.508 384.367 222.167C384.367 219.91 383.531 218.196 381.859 217.025C380.187 215.771 377.553 214.768 373.958 214.016C370.363 213.18 365.639 212.344 359.787 211.507C355.188 210.839 350.841 209.919 346.744 208.748C342.648 207.494 339.011 205.906 335.834 203.983C332.74 202.06 330.274 199.719 328.434 196.96C326.679 194.117 325.801 190.773 325.801 186.927C325.801 182.162 327.139 177.981 329.814 174.386C332.573 170.791 336.628 167.99 341.979 165.984C347.329 163.977 353.893 162.974 361.668 162.974C373.373 162.974 382.361 165.482 388.631 170.498C394.985 175.431 398.079 182.245 397.911 190.94H381.608C381.274 186.007 379.184 182.454 375.338 180.28C371.575 178.107 366.81 177.02 361.041 177.02C355.69 177.02 351.259 177.814 347.748 179.403C344.32 180.991 342.606 183.708 342.606 187.554C342.606 189.059 343.024 190.397 343.86 191.567C344.696 192.654 346.117 193.616 348.124 194.452C350.13 195.288 352.848 196.082 356.275 196.834C359.703 197.587 363.967 198.339 369.067 199.092C373.833 199.761 378.138 200.68 381.984 201.851C385.914 202.938 389.258 204.401 392.017 206.24C394.86 207.996 397.034 210.253 398.538 213.012C400.043 215.771 400.796 219.157 400.796 223.171C400.796 228.103 399.5 232.409 396.908 236.088C394.4 239.683 390.47 242.484 385.12 244.49C379.852 246.497 372.997 247.5 364.552 247.5C358.533 247.5 353.224 246.873 348.625 245.619C344.027 244.281 340.056 242.525 336.711 240.352C333.367 238.178 330.65 235.795 328.56 233.203C326.47 230.612 324.965 228.02 324.045 225.428C323.209 222.836 322.875 220.495 323.042 218.405Z"/></clipPath><clipPath id="paint8_diamond_203_469_clip_path"><path d="M961.159 72.7705V91.8634H1021.08V105.192H945.188V27.5H1020.96V40.829H961.159V60.162H1010.15V72.7705H961.159Z"/></clipPath><clipPath id="paint9_diamond_203_469_clip_path"><path d="M841.177 105.192V27.5H893.893C899.897 27.5 905.1 28.3406 909.503 30.0217C913.986 31.6228 917.469 34.1845 919.95 37.7069C922.432 41.1492 923.673 45.5922 923.673 51.0359C923.673 54.7183 923.032 57.8404 921.752 60.4022C920.471 62.9639 918.669 65.0453 916.348 66.6464C914.106 68.2475 911.505 69.4883 908.543 70.3689C905.581 71.1694 902.419 71.6898 899.056 71.9299L897.375 70.9693C902.979 71.0493 907.582 71.5297 911.184 72.4103C914.787 73.2108 917.469 74.7318 919.23 76.9733C921.071 79.1348 921.992 82.377 921.992 86.6999V105.192H906.021V87.7806C906.021 84.8186 905.501 82.5371 904.46 80.936C903.419 79.2549 901.538 78.0941 898.816 77.4537C896.174 76.8132 892.332 76.493 887.288 76.493H857.148V105.192H841.177ZM857.148 64.0046H893.893C898.376 64.0046 901.778 62.9239 904.1 60.7624C906.501 58.601 907.702 55.679 907.702 51.9965C907.702 48.4741 906.501 45.7923 904.1 43.9511C901.778 42.1098 898.376 41.1892 893.893 41.1892H857.148V64.0046Z"/></clipPath><clipPath id="paint10_diamond_203_469_clip_path"><path d="M753.75 88.2609V74.932H805.145V88.2609H753.75ZM734.417 105.192L770.922 27.5H788.214L825.079 105.192H807.667L775.725 35.1852H783.41L751.709 105.192H734.417Z"/></clipPath><clipPath id="paint11_diamond_203_469_clip_path"><path d="M616.29 105.192L583.508 27.5H601.16L628.899 96.3064L623.735 96.4264L650.153 27.5H668.526L694.943 96.4264L689.78 96.3064L717.519 27.5H734.81L702.388 105.192H682.815L656.878 37.827H661.921L635.864 105.192H616.29Z"/></clipPath><clipPath id="paint12_diamond_203_469_clip_path"><path d="M548.899 27.5H564.87V105.192H548.899V27.5Z"/></clipPath><clipPath id="paint13_diamond_203_469_clip_path"><path d="M512.35 89.3417L507.307 91.383V27.5H523.278V105.192H507.307L444.505 43.831L449.548 41.7896V105.192H433.577V27.5H449.548L512.35 89.3417Z"/></clipPath><clipPath id="paint14_diamond_203_469_clip_path"><path d="M394.328 70.8492V27.5H410.299V72.5303C410.299 77.6538 409.538 82.1368 408.017 85.9794C406.576 89.822 404.495 93.0642 401.773 95.706C399.051 98.3477 395.849 100.509 392.167 102.19C388.564 103.791 384.601 104.952 380.279 105.673C376.036 106.393 371.553 106.753 366.83 106.753C361.946 106.753 357.303 106.393 352.9 105.673C348.497 104.952 344.454 103.791 340.772 102.19C337.17 100.509 334.047 98.3477 331.406 95.706C328.764 93.0642 326.682 89.822 325.161 85.9794C323.72 82.1368 323 77.6538 323 72.5303V27.5H338.971V70.8492C338.971 76.9333 340.172 81.5764 342.573 84.7786C344.975 87.9007 348.257 90.0622 352.42 91.263C356.663 92.3837 361.466 92.9441 366.83 92.9441C372.033 92.9441 376.676 92.3837 380.759 91.263C384.922 90.0622 388.204 87.9007 390.606 84.7786C393.087 81.5764 394.328 76.9333 394.328 70.8492Z"/></clipPath><linearGradient id="paint0_diamond_203_469" x1="0" y1="0" x2="500" y2="500" gradientUnits="userSpaceOnUse">
<stop offset="0.5" stop-color="#E9A638"/>
<stop offset="1" stop-color="#BB6D08"/>
</linearGradient>
<linearGradient id="paint1_diamond_203_469" x1="0" y1="0" x2="500" y2="500" gradientUnits="userSpaceOnUse">
<stop offset="0.5" stop-color="#E9A638"/>
<stop offset="1" stop-color="#BB6D08"/>
</linearGradient>
<linearGradient id="paint2_diamond_203_469" x1="0" y1="0" x2="500" y2="500" gradientUnits="userSpaceOnUse">
<stop offset="0.5" stop-color="#E9A638"/>
<stop offset="1" stop-color="#BB6D08"/>
</linearGradient>
<linearGradient id="paint3_diamond_203_469" x1="0" y1="0" x2="500" y2="500" gradientUnits="userSpaceOnUse">
<stop offset="0.5" stop-color="#E9A638"/>
<stop offset="1" stop-color="#BB6D08"/>
</linearGradient>
<linearGradient id="paint4_diamond_203_469" x1="0" y1="0" x2="500" y2="500" gradientUnits="userSpaceOnUse">
<stop offset="0.5" stop-color="#E9A638"/>
<stop offset="1" stop-color="#BB6D08"/>
</linearGradient>
<linearGradient id="paint5_diamond_203_469" x1="0" y1="0" x2="500" y2="500" gradientUnits="userSpaceOnUse">
<stop offset="0.5" stop-color="#E9A638"/>
<stop offset="1" stop-color="#BB6D08"/>
</linearGradient>
<linearGradient id="paint6_diamond_203_469" x1="0" y1="0" x2="500" y2="500" gradientUnits="userSpaceOnUse">
<stop offset="0.5" stop-color="#E9A638"/>
<stop offset="1" stop-color="#BB6D08"/>
</linearGradient>
<linearGradient id="paint7_diamond_203_469" x1="0" y1="0" x2="500" y2="500" gradientUnits="userSpaceOnUse">
<stop offset="0.5" stop-color="#E9A638"/>
<stop offset="1" stop-color="#BB6D08"/>
</linearGradient>
<linearGradient id="paint8_diamond_203_469" x1="0" y1="0" x2="500" y2="500" gradientUnits="userSpaceOnUse">
<stop offset="0.5" stop-color="#E9A638"/>
<stop offset="1" stop-color="#BB6D08"/>
</linearGradient>
<linearGradient id="paint9_diamond_203_469" x1="0" y1="0" x2="500" y2="500" gradientUnits="userSpaceOnUse">
<stop offset="0.5" stop-color="#E9A638"/>
<stop offset="1" stop-color="#BB6D08"/>
</linearGradient>
<linearGradient id="paint10_diamond_203_469" x1="0" y1="0" x2="500" y2="500" gradientUnits="userSpaceOnUse">
<stop offset="0.5" stop-color="#E9A638"/>
<stop offset="1" stop-color="#BB6D08"/>
</linearGradient>
<linearGradient id="paint11_diamond_203_469" x1="0" y1="0" x2="500" y2="500" gradientUnits="userSpaceOnUse">
<stop offset="0.5" stop-color="#E9A638"/>
<stop offset="1" stop-color="#BB6D08"/>
</linearGradient>
<linearGradient id="paint12_diamond_203_469" x1="0" y1="0" x2="500" y2="500" gradientUnits="userSpaceOnUse">
<stop offset="0.5" stop-color="#E9A638"/>
<stop offset="1" stop-color="#BB6D08"/>
</linearGradient>
<linearGradient id="paint13_diamond_203_469" x1="0" y1="0" x2="500" y2="500" gradientUnits="userSpaceOnUse">
<stop offset="0.5" stop-color="#E9A638"/>
<stop offset="1" stop-color="#BB6D08"/>
</linearGradient>
<linearGradient id="paint14_diamond_203_469" x1="0" y1="0" x2="500" y2="500" gradientUnits="userSpaceOnUse">
<stop offset="0.5" stop-color="#E9A638"/>
<stop offset="1" stop-color="#BB6D08"/>
</linearGradient>
</defs>
</svg>
