<svg width="308" height="308" viewBox="0 0 308 308" fill="none" xmlns="http://www.w3.org/2000/svg">
<g clip-path="url(#paint0_diamond_39_263_clip_path)" data-figma-skip-parse="true"><g transform="matrix(-0.13423 -0.134 0.13423 -0.082124 153.73 155.5)"><rect x="0" y="0" width="1007.46" height="1249.28" fill="url(#paint0_diamond_39_263)" opacity="1" shape-rendering="crispEdges"/><rect x="0" y="0" width="1007.46" height="1249.28" transform="scale(1 -1)" fill="url(#paint0_diamond_39_263)" opacity="1" shape-rendering="crispEdges"/><rect x="0" y="0" width="1007.46" height="1249.28" transform="scale(-1 1)" fill="url(#paint0_diamond_39_263)" opacity="1" shape-rendering="crispEdges"/><rect x="0" y="0" width="1007.46" height="1249.28" transform="scale(-1)" fill="url(#paint0_diamond_39_263)" opacity="1" shape-rendering="crispEdges"/></g></g><path d="M287.96 154C287.96 154.291 287.958 154.582 287.954 154.872C287.956 154.581 287.96 154.291 287.96 154ZM19.5 155.5C19.5 81.4938 79.4938 21.5 153.5 21.5C193.021 21.5 228.544 38.6107 253.07 65.8262C229.808 41.0145 196.736 25.5107 160.041 25.5107C106.907 25.5107 61.3653 58.014 42.2109 104.222C54.4786 93.1786 70.4321 87.0244 87.0205 87.0244C104.784 87.0244 121.82 94.0805 134.381 106.641C146.746 119.005 153.777 135.705 153.995 153.168L154.005 154.832C154.222 172.295 161.253 188.996 173.618 201.361C186.179 213.922 203.216 220.979 220.979 220.979C238.744 220.979 255.781 213.922 268.342 201.361C278.065 191.638 284.488 179.234 286.896 165.886C287.207 162.775 287.409 159.632 287.493 156.46C287.476 158.911 287.39 161.347 287.243 163.766C287.675 160.836 287.915 157.865 287.954 154.872C287.873 167.292 286.069 179.527 282.673 191.255C267.029 247.902 215.124 289.5 153.5 289.5C79.4938 289.5 19.5 229.506 19.5 155.5ZM62.5 159.046C62.5 162.407 62.9377 165.349 63.8125 167.87C64.7359 170.391 65.9998 172.519 67.6035 174.252C69.2072 175.985 71.1024 177.403 73.2891 178.506C75.5246 179.556 77.9794 180.318 80.6523 180.791C83.3254 181.264 86.1447 181.5 89.1094 181.5C91.9769 181.5 94.6985 181.264 97.2744 180.791C99.8989 180.318 102.305 179.556 104.492 178.506C106.728 177.403 108.672 175.985 110.324 174.252C111.977 172.519 113.24 170.391 114.115 167.87C115.039 165.349 115.5 162.407 115.5 159.046V129.5H105.804V157.942C105.804 161.934 105.051 164.981 103.544 167.082C102.086 169.13 100.093 170.548 97.5664 171.336C95.0877 172.071 92.2685 172.439 89.1094 172.439C85.8531 172.439 82.9372 172.071 80.3613 171.336C77.8341 170.548 75.8409 169.131 74.3828 167.082C72.9248 164.981 72.1963 161.934 72.1963 157.942V129.5H62.5V159.046Z" data-figma-gradient-fill="{&#34;type&#34;:&#34;GRADIENT_DIAMOND&#34;,&#34;stops&#34;:[{&#34;color&#34;:{&#34;r&#34;:0.91372549533843994,&#34;g&#34;:0.65098041296005249,&#34;b&#34;:0.21960784494876862,&#34;a&#34;:1.0},&#34;position&#34;:0.50},{&#34;color&#34;:{&#34;r&#34;:0.73333334922790527,&#34;g&#34;:0.42745098471641541,&#34;b&#34;:0.031372550874948502,&#34;a&#34;:1.0},&#34;position&#34;:1.0}],&#34;stopsVar&#34;:[{&#34;color&#34;:{&#34;r&#34;:0.91372549533843994,&#34;g&#34;:0.65098041296005249,&#34;b&#34;:0.21960784494876862,&#34;a&#34;:1.0},&#34;position&#34;:0.50},{&#34;color&#34;:{&#34;r&#34;:0.73333334922790527,&#34;g&#34;:0.42745098471641541,&#34;b&#34;:0.031372550874948502,&#34;a&#34;:1.0},&#34;position&#34;:1.0}],&#34;transform&#34;:{&#34;m00&#34;:-268.45996093750,&#34;m01&#34;:268.45996093750,&#34;m02&#34;:153.729980468750,&#34;m10&#34;:-268.0,&#34;m11&#34;:-164.24790954589844,&#34;m12&#34;:371.62396240234375},&#34;opacity&#34;:1.0,&#34;blendMode&#34;:&#34;NORMAL&#34;,&#34;visible&#34;:true}"/>
<path d="M194.527 162.568H205.626C205.846 164.418 206.695 166.104 208.175 167.628C209.71 169.096 211.71 170.266 214.177 171.137C216.643 171.953 219.411 172.361 222.48 172.361C225.275 172.361 227.577 172.061 229.386 171.463C231.195 170.864 232.538 170.021 233.415 168.933C234.292 167.845 234.73 166.54 234.73 165.016C234.73 163.547 234.182 162.432 233.086 161.671C231.99 160.855 230.263 160.202 227.906 159.712C225.549 159.168 222.453 158.624 218.616 158.08C215.602 157.645 212.751 157.046 210.066 156.285C207.38 155.469 204.996 154.435 202.913 153.184C200.885 151.933 199.268 150.409 198.063 148.614C196.912 146.765 196.336 144.589 196.336 142.086C196.336 138.985 197.213 136.265 198.967 133.926C200.776 131.587 203.434 129.764 206.942 128.458C210.449 127.153 214.752 126.5 219.849 126.5C227.523 126.5 233.415 128.132 237.525 131.396C241.691 134.606 243.719 139.04 243.609 144.697H232.921C232.702 141.488 231.332 139.176 228.811 137.761C226.344 136.347 223.22 135.639 219.438 135.639C215.93 135.639 213.026 136.156 210.724 137.19C208.476 138.224 207.353 139.992 207.353 142.494C207.353 143.473 207.627 144.344 208.175 145.105C208.723 145.813 209.655 146.438 210.97 146.982C212.286 147.526 214.067 148.043 216.314 148.533C218.561 149.022 221.357 149.512 224.7 150.001C227.824 150.437 230.647 151.035 233.168 151.797C235.744 152.504 237.936 153.456 239.745 154.653C241.609 155.795 243.034 157.264 244.02 159.059C245.007 160.855 245.5 163.058 245.5 165.669C245.5 168.879 244.65 171.681 242.951 174.074C241.307 176.413 238.731 178.236 235.223 179.542C231.77 180.847 227.276 181.5 221.74 181.5C217.794 181.5 214.314 181.092 211.299 180.276C208.285 179.406 205.681 178.263 203.489 176.849C201.296 175.434 199.515 173.884 198.145 172.197C196.775 170.511 195.788 168.824 195.185 167.138C194.637 165.452 194.418 163.928 194.527 162.568Z" fill="#E9A638"/>
<defs>
<clipPath id="paint0_diamond_39_263_clip_path"><path d="M287.96 154C287.96 154.291 287.958 154.582 287.954 154.872C287.956 154.581 287.96 154.291 287.96 154ZM19.5 155.5C19.5 81.4938 79.4938 21.5 153.5 21.5C193.021 21.5 228.544 38.6107 253.07 65.8262C229.808 41.0145 196.736 25.5107 160.041 25.5107C106.907 25.5107 61.3653 58.014 42.2109 104.222C54.4786 93.1786 70.4321 87.0244 87.0205 87.0244C104.784 87.0244 121.82 94.0805 134.381 106.641C146.746 119.005 153.777 135.705 153.995 153.168L154.005 154.832C154.222 172.295 161.253 188.996 173.618 201.361C186.179 213.922 203.216 220.979 220.979 220.979C238.744 220.979 255.781 213.922 268.342 201.361C278.065 191.638 284.488 179.234 286.896 165.886C287.207 162.775 287.409 159.632 287.493 156.46C287.476 158.911 287.39 161.347 287.243 163.766C287.675 160.836 287.915 157.865 287.954 154.872C287.873 167.292 286.069 179.527 282.673 191.255C267.029 247.902 215.124 289.5 153.5 289.5C79.4938 289.5 19.5 229.506 19.5 155.5ZM62.5 159.046C62.5 162.407 62.9377 165.349 63.8125 167.87C64.7359 170.391 65.9998 172.519 67.6035 174.252C69.2072 175.985 71.1024 177.403 73.2891 178.506C75.5246 179.556 77.9794 180.318 80.6523 180.791C83.3254 181.264 86.1447 181.5 89.1094 181.5C91.9769 181.5 94.6985 181.264 97.2744 180.791C99.8989 180.318 102.305 179.556 104.492 178.506C106.728 177.403 108.672 175.985 110.324 174.252C111.977 172.519 113.24 170.391 114.115 167.87C115.039 165.349 115.5 162.407 115.5 159.046V129.5H105.804V157.942C105.804 161.934 105.051 164.981 103.544 167.082C102.086 169.13 100.093 170.548 97.5664 171.336C95.0877 172.071 92.2685 172.439 89.1094 172.439C85.8531 172.439 82.9372 172.071 80.3613 171.336C77.8341 170.548 75.8409 169.131 74.3828 167.082C72.9248 164.981 72.1963 161.934 72.1963 157.942V129.5H62.5V159.046Z"/></clipPath><linearGradient id="paint0_diamond_39_263" x1="0" y1="0" x2="500" y2="500" gradientUnits="userSpaceOnUse">
<stop offset="0.5" stop-color="#E9A638"/>
<stop offset="1" stop-color="#BB6D08"/>
</linearGradient>
</defs>
</svg>
