<svg width="481" height="167" viewBox="0 0 481 167" fill="none" xmlns="http://www.w3.org/2000/svg">
<path d="M101.25 90.6698V89.9398L95.07 84.5798H94.35C92.65 86.4698 90.03 87.8898 87.09 87.8898C82.51 87.8898 78.9 84.3698 78.9 79.5398C78.9 74.7098 82.5 71.1898 87.09 71.1898C90.03 71.1898 92.65 72.6098 94.35 74.4998H95.07L101.25 69.1398V68.3998C98.01 64.4098 92.91 61.8398 87.14 61.8398C76.53 61.8398 68.5 69.3998 68.5 79.5398C68.5 79.9398 68.59 80.2898 68.61 80.6798C72.95 83.6498 76.78 86.0299 80.09 88.2099C84.84 91.2399 88.68 94.0299 91.85 96.6299C95.79 95.6199 98.99 93.4498 101.26 90.6798" fill="black"/>
<path d="M124.37 74.44C124.37 76.7 122.72 77.8 120.82 77.8H116.08V70.87H120.82C122.73 70.87 124.37 72.13 124.37 74.44ZM137.04 94.98L135.5 88.26L134.93 87.89C134.62 88.05 134.36 88.26 133.59 88.26C132.4 88.26 131.68 87 131.07 86C130.04 84.42 129.22 83.58 128.5 83.21C132.26 81.53 134.78 78.38 134.78 73.86C134.78 66.87 130.04 62.46 121.24 62.46H105.9V96.6H116.1V84.62H117.03C119.3 84.62 122.18 89.56 123.52 91.76C126.3 96.23 128.52 97.22 132.48 97.22C134.33 97.22 135.88 96.54 136.81 95.7L137.07 94.97L137.04 94.98Z" fill="black"/>
<path d="M166.03 79.5301C166.03 84.4101 162.32 87.8801 157.74 87.8801C153.16 87.8801 149.45 84.4101 149.45 79.5301C149.45 74.6501 153.16 71.1801 157.74 71.1801C162.32 71.1801 166.03 74.6501 166.03 79.5301ZM176.43 79.5301C176.43 69.3901 168.4 61.8301 157.74 61.8301C147.08 61.8301 139.05 69.3901 139.05 79.5301C139.05 89.6701 147.08 97.2301 157.74 97.2301C168.4 97.2301 176.43 89.6101 176.43 79.5301Z" fill="black"/>
<path d="M227.46 62.46H217.73L211.71 81.37L205.32 62.46H199.14L192.81 81.27L186.78 62.46H177.05L176.59 63.25L189.05 96.61H195.23L202.23 78.01L209.29 96.61H215.47L227.93 63.25L227.46 62.46Z" fill="black"/>
<path d="M254.86 79.5297C254.86 85.0997 251.61 88.1997 247.13 88.1997H242.14V70.8697H247.13C251.61 70.8697 254.86 73.9697 254.86 79.5397M265.26 79.4897C265.26 69.2997 258.51 62.4697 247.54 62.4697H231.94V96.6097H247.54C258.51 96.6097 265.26 89.7797 265.26 79.4897Z" fill="black"/>
<path d="M319.28 70.87H329.47V62.46H298.88V70.87H309.08V96.61H319.28V70.87Z" fill="black"/>
<path d="M351.67 74.44C351.67 76.7 350.02 77.8 348.12 77.8H343.38V70.87H348.12C350.03 70.87 351.67 72.13 351.67 74.44ZM362.07 73.86C362.07 66.87 357.33 62.46 348.53 62.46H333.18V96.6H343.38V84.63H345.8L352.13 96.6H362.27L362.73 95.81L355.93 83.15C359.59 81.42 362.06 78.32 362.06 73.85" fill="black"/>
<path d="M378.45 62.46H368.25V96.6H378.45V62.46Z" fill="black"/>
<path d="M404.29 77.75L415.83 63.25L415.36 62.46H404.5L395.08 74.6V62.46H384.88V96.6H395.08V86.1L396.93 83.89L405.58 96.6H416.24L416.71 95.82L404.29 77.75Z" fill="black"/>
<path d="M444.98 70.87V62.46H419.48V96.61H445.13V88.2H429.68V83.47H441.32V75.59H429.68V70.87H444.98Z" fill="black"/>
<path d="M282.51 97.0099C289.98 97.0099 296.46 93.3399 296.46 86.2499C296.46 78.5299 289.92 76.5299 284.16 74.8499C281.89 74.1699 279.57 73.3799 279.57 71.6999C279.57 70.4899 280.86 69.7599 282.82 69.7599C286.17 69.7599 289 71.8599 290.44 73.2299H291.16L295.95 67.4499V66.7199C293.43 63.8299 288.28 61.6299 282.62 61.6299C274.69 61.6299 269.18 65.9399 269.18 72.1799C269.18 78.9099 275.25 81.8499 280.4 83.3199C283.75 84.2699 286.02 84.4299 286.02 86.2599C286.02 87.5699 284.42 88.3599 281.95 88.3599C278.81 88.3599 275 86.3099 273.15 84.4699H272.43L267.69 90.4599V91.1899C270.73 94.5999 276.18 97.0199 282.52 97.0199" fill="black"/>
<path d="M106.72 128.39C104.25 122.7 99.2898 115.39 79.8498 104.96C70.8898 99.9403 55.5698 92.2103 41.7998 77.5303C43.0498 82.8303 49.4398 94.4803 76.9498 109.03C84.5698 113.23 97.4498 117.16 106.72 128.39Z" fill="#ED1C24"/>
<path d="M105.48 118.64C103.14 111.91 98.9101 103.3 78.8401 90.4998C69.0701 84.0498 54.7201 75.9498 35.8301 55.2998C37.1801 60.8698 43.1501 75.3398 73.2201 94.1398C83.1001 100.88 95.8501 105.04 105.47 118.64" fill="#ED1C24"/>
</svg>
