<?xml version="1.0" encoding="UTF-8"?>
<svg id="Layer_1" data-name="Layer 1" xmlns="http://www.w3.org/2000/svg" width="600" height="100" viewBox="0 0 600 100">
  <defs>
    <style>
      .cls-1 {
        fill: #001a47;
      }

      .cls-2 {
        fill: #2006f7;
      }
    </style>
  </defs>
  <path class="cls-2" d="M4.48,2.85v28.3c0,4.8,2.6,9.21,6.79,11.54l29.46,16.35.19.11,29.6-16.45c4.19-2.33,6.79-6.74,6.79-11.53V2.85H4.48ZM51.89,36.38c-2.2,1.22-4.67,1.86-7.18,1.86l-27.32-.08,15.32-8.54c1.48-.83,3.14-1.26,4.84-1.27l28.92-.09-14.57,8.13ZM51.47,22.4c-1.48.83-3.14,1.26-4.84,1.27l-28.92.09,14.57-8.13c2.2-1.22,4.67-1.86,7.18-1.86l27.32.08-15.32,8.54Z"/>
  <g>
    <path class="cls-1" d="M578.8,23.5h-46.42c-2.12,0-3.84-1.72-3.84-3.84,0-2.12,1.72-3.84,3.84-3.84h60.4s0-12.88,0-12.88h-60.4c-9.22,0-16.72,7.5-16.72,16.72,0,9.22,7.5,16.72,16.72,16.72h46.42c2.12,0,3.84,1.75,3.84,3.86,0,2.12-1.72,3.77-3.84,3.77h-60.53v12.88h60.53c9.22,0,16.72-7.42,16.72-16.64,0-9.22-7.5-16.74-16.72-16.74Z"/>
    <path class="cls-1" d="M228.84,2.97h-25.15c-14.89,0-27.01,12.12-27.01,27.01,0,14.89,12.12,27.01,27.01,27.01h25.15c14.89,0,27.01-12.12,27.01-27.01,0-14.89-12.12-27.01-27.01-27.01ZM228.84,44.1h-25.15c-7.78,0-14.11-6.33-14.11-14.11,0-7.78,6.33-14.11,14.11-14.11h25.15c7.78,0,14.11,6.33,14.11,14.11,0,7.78-6.33,14.11-14.11,14.11Z"/>
    <path class="cls-1" d="M483.22,2.97h-25.15c-14.89,0-27.01,12.12-27.01,27.01,0,14.89,12.12,27.01,27.01,27.01h25.15c14.89,0,27.01-12.12,27.01-27.01,0-14.89-12.12-27.01-27.01-27.01ZM483.22,44.1h-25.15c-7.78,0-14.11-6.33-14.11-14.11,0-7.78,6.33-14.11,14.11-14.11h25.15c7.78,0,14.11,6.33,14.11,14.11,0,7.78-6.33,14.11-14.11,14.11Z"/>
    <polygon class="cls-1" points="410.52 3.02 410.52 23.46 360.14 23.46 360.14 3.02 347.24 3.02 347.24 56.92 360.14 56.92 360.14 36.35 410.52 36.35 410.52 56.92 423.42 56.92 423.42 3.02 410.52 3.02"/>
    <path class="cls-1" d="M155.11,23.5h-46.42c-2.12,0-3.84-1.72-3.84-3.84,0-2.12,1.72-3.84,3.84-3.84h60.4V2.94h-60.4c-9.22,0-16.72,7.5-16.72,16.72,0,9.22,7.5,16.72,16.72,16.72h46.42c2.12,0,3.84,1.75,3.84,3.86s-1.72,3.77-3.84,3.77h-60.53v12.88s60.53,0,60.53,0c9.22,0,16.72-7.42,16.72-16.64,0-9.22-7.5-16.74-16.72-16.74Z"/>
    <path class="cls-1" d="M319.66,3.02h-43.49s-5.2,0-5.2,0h-7.7s0,53.89,0,53.89h12.9s0-14.44,0-14.44h43.49c10.88,0,19.73-8.85,19.73-19.73,0-10.88-8.85-19.73-19.73-19.73ZM319.66,29.58h-43.49s0-13.66,0-13.66h43.49c3.77,0,6.83,3.06,6.83,6.83,0,3.77-3.06,6.83-6.83,6.83Z"/>
  </g>
  <g>
    <path class="cls-1" d="M94.98,77.74h9.55c6.48,0,10.79,3.73,10.79,9.56s-4.3,9.56-10.79,9.56h-9.55v-19.12ZM104.53,94.64c5,0,8.18-2.9,8.18-7.35s-3.17-7.35-8.2-7.35h-6.99v14.7h7.02Z"/>
    <path class="cls-1" d="M137.53,77.74v2.24h-15.39v5.88h13.85v2.24h-13.85v6.52h15.39v2.24h-17.92v-19.12h17.92Z"/>
    <path class="cls-1" d="M142.12,96.85v-19.12h17.65v2.24h-15.12v6.15h13.58v2.24h-13.58v8.49h-2.53Z"/>
    <path class="cls-1" d="M181.88,77.74v2.24h-15.39v5.88h13.85v2.24h-13.85v6.52h15.39v2.24h-17.92v-19.12h17.92Z"/>
    <path class="cls-1" d="M197.37,77.74l10.14,19.12h-2.74l-2.8-5.3h-12.02l-2.83,5.3h-2.74l10.17-19.12h2.82ZM191.13,89.32h9.66l-4.82-9.08-4.84,9.08Z"/>
    <path class="cls-1" d="M217.78,79.97v16.88h-2.58v-16.88h-9.12v-2.24h20.82v2.24h-9.12Z"/>
    <path class="cls-1" d="M249.22,77.44c5.03,0,8.66,2.45,10.03,6.2l-2.15,1.12c-1.16-3.12-3.87-5.03-7.85-5.03-5.03,0-8.69,3.06-8.69,7.56s3.66,7.56,8.69,7.56c3.98,0,6.7-1.92,7.85-5.03l2.15,1.12c-1.37,3.75-5,6.2-10.03,6.2-6.43,0-11.27-4.13-11.27-9.85s4.84-9.85,11.27-9.85Z"/>
    <path class="cls-1" d="M279.19,77.74h3.17l-10.06,10.78v8.33h-2.56v-8.33l-10.06-10.78h3.2l8.15,8.79,8.15-8.79Z"/>
    <path class="cls-1" d="M285.61,77.74h12.21c4.06,0,6.4,1.78,6.4,4.98,0,2.45-1.67,3.67-3.15,4.18,2.21.59,3.79,2.26,3.79,4.69,0,3.33-2.58,5.27-6.48,5.27h-12.78v-19.12ZM297.61,85.94c2.58,0,4.17-.99,4.17-3.01s-1.59-3.04-4.17-3.04h-9.52v6.04h9.52ZM288.09,94.7h10.2c2.56,0,4.12-1.33,4.12-3.3s-1.56-3.28-4.12-3.28h-10.2v6.58Z"/>
    <path class="cls-1" d="M327.06,77.74v2.24h-15.39v5.88h13.85v2.24h-13.85v6.52h15.39v2.24h-17.92v-19.12h17.92Z"/>
    <path class="cls-1" d="M334.24,96.85h-2.58v-19.12h12.08c4.03,0,6.83,1.89,6.83,5.54,0,3.06-2.04,4.95-5.16,5.43l5.57,8.15h-2.96l-5.43-8.01h-8.34v8.01ZM343.6,86.63c2.74,0,4.44-1.2,4.44-3.36s-1.7-3.33-4.44-3.33h-9.36v6.68h9.36Z"/>
    <path class="cls-1" d="M365.71,77.74l10.14,19.12h-2.74l-2.8-5.3h-12.02l-2.83,5.3h-2.74l10.17-19.12h2.82ZM359.47,89.32h9.66l-4.82-9.08-4.84,9.08Z"/>
    <path class="cls-1" d="M386.12,79.97v16.88h-2.58v-16.88h-9.12v-2.24h20.82v2.24h-9.12Z"/>
    <path class="cls-1" d="M406.7,79.97v16.88h-2.58v-16.88h-9.12v-2.24h20.82v2.24h-9.12Z"/>
    <path class="cls-1" d="M427.36,77.74l10.14,19.12h-2.74l-2.8-5.3h-12.02l-2.83,5.3h-2.74l10.17-19.12h2.82ZM421.11,89.32h9.66l-4.82-9.08-4.84,9.08Z"/>
    <path class="cls-1" d="M449.57,77.44c5.03,0,8.66,2.45,10.03,6.2l-2.15,1.12c-1.16-3.12-3.87-5.03-7.85-5.03-5.03,0-8.69,3.06-8.69,7.56s3.66,7.56,8.69,7.56c3.98,0,6.7-1.92,7.85-5.03l2.15,1.12c-1.37,3.75-5,6.2-10.03,6.2-6.43,0-11.27-4.13-11.27-9.85s4.84-9.85,11.27-9.85Z"/>
    <path class="cls-1" d="M466.11,87.99l12.89-10.25h3.71l-10.57,8.23,11.33,10.89h-3.5l-9.74-9.4-4.12,3.2v6.2h-2.58v-19.12h2.58v10.25Z"/>
    <path class="cls-1" d="M485.96,90.46c1.91,3.22,5.62,4.45,8.98,4.45,3.82,0,6.59-1.38,6.59-3.51,0-2.32-1.88-2.66-7.67-3.28-5.03-.51-8.53-1.25-8.53-4.93,0-3.33,3.44-5.75,8.55-5.75,4.49,0,8.12,1.73,9.66,4.26l-1.88,1.49c-1.35-2.13-4.12-3.51-7.88-3.51s-6,1.49-6,3.28c0,2.02,1.88,2.42,6.89,2.93,6.05.64,9.39,1.36,9.39,5.25s-3.95,6.02-9.17,6.02c-4.76,0-9.07-1.94-10.81-5.03l1.88-1.65Z"/>
  </g>
</svg>