<svg width="521" height="277" viewBox="0 0 521 277" fill="none" xmlns="http://www.w3.org/2000/svg">
<path d="M111.867 246.562C111.867 244.125 112.485 242.236 113.721 240.894C114.992 239.552 116.776 238.881 119.071 238.881C119.495 238.881 119.99 238.951 120.555 239.093C121.155 239.199 121.667 239.357 122.091 239.569V242.536C121.349 242.112 120.449 241.9 119.389 241.9C116.705 241.9 115.363 243.419 115.363 246.456V249.158H121.932V252.283H115.363V275.485H111.867V246.562ZM126.414 249.158H129.91V254.084C130.793 252.495 132.047 251.17 133.671 250.111C135.331 249.016 137.097 248.557 138.969 248.734L138.863 252.283C138.403 252.177 137.997 252.124 137.644 252.124C136.267 252.124 134.978 252.548 133.777 253.395C132.612 254.243 131.676 255.355 130.97 256.733C130.263 258.075 129.91 259.452 129.91 260.865V275.485H126.414V249.158ZM153.363 276.068C150.961 276.068 148.772 275.467 146.794 274.267C144.852 273.031 143.298 271.371 142.133 269.287C141.003 267.168 140.438 264.838 140.438 262.295C140.438 259.681 141.003 257.333 142.133 255.249C143.298 253.166 144.852 251.541 146.794 250.376C148.772 249.175 150.961 248.575 153.363 248.575C155.764 248.575 157.936 249.175 159.879 250.376C161.856 251.541 163.41 253.166 164.54 255.249C165.706 257.333 166.288 259.681 166.288 262.295C166.288 264.838 165.706 267.168 164.54 269.287C163.41 271.371 161.856 273.031 159.879 274.267C157.936 275.467 155.764 276.068 153.363 276.068ZM153.363 272.942C155.199 272.942 156.824 272.483 158.236 271.565C159.649 270.647 160.744 269.376 161.521 267.751C162.298 266.127 162.686 264.308 162.686 262.295C162.686 260.317 162.298 258.516 161.521 256.892C160.744 255.267 159.649 253.996 158.236 253.078C156.824 252.124 155.199 251.647 153.363 251.647C151.527 251.647 149.902 252.124 148.489 253.078C147.077 253.996 145.982 255.267 145.205 256.892C144.428 258.516 144.04 260.317 144.04 262.295C144.04 264.308 144.428 266.127 145.205 267.751C145.982 269.376 147.077 270.647 148.489 271.565C149.902 272.483 151.527 272.942 153.363 272.942ZM172.217 249.158H175.713V253.872C176.667 252.389 177.885 251.153 179.368 250.164C180.887 249.14 182.635 248.628 184.613 248.628C186.626 248.628 188.321 249.193 189.698 250.323C191.075 251.418 191.958 252.901 192.347 254.773C193.124 253.113 194.395 251.665 196.161 250.429C197.927 249.193 199.851 248.575 201.935 248.575C204.442 248.575 206.455 249.387 207.974 251.012C209.528 252.636 210.305 255.249 210.305 258.852V275.432H206.808V259.487C206.808 256.591 206.296 254.561 205.272 253.395C204.248 252.195 202.835 251.594 201.034 251.594C199.657 251.594 198.35 252.018 197.114 252.866C195.878 253.713 194.889 254.79 194.148 256.097C193.406 257.404 193.035 258.71 193.035 260.017V275.485H189.539V259.54C189.539 256.715 189.009 254.702 187.95 253.501C186.891 252.265 185.478 251.647 183.712 251.647C182.264 251.647 180.922 252.071 179.686 252.919C178.485 253.731 177.514 254.826 176.773 256.203C176.066 257.545 175.713 258.975 175.713 260.494V275.485H172.217V249.158ZM242.611 276.068C240.21 276.068 238.003 275.626 235.99 274.743C233.977 273.825 232.282 272.642 230.904 271.194C229.527 269.711 228.556 268.175 227.991 266.586L231.381 264.838C232.193 267.204 233.624 269.111 235.672 270.559C237.755 272.007 240.069 272.731 242.611 272.731C245.154 272.731 247.255 272.095 248.915 270.823C250.575 269.517 251.405 267.857 251.405 265.844C251.405 264.008 250.805 262.666 249.604 261.818C248.438 260.97 246.832 260.317 244.783 259.858L239.592 258.693C236.731 258.057 234.33 256.892 232.388 255.196C230.445 253.466 229.474 251.276 229.474 248.628C229.474 246.791 229.986 245.132 231.01 243.648C232.07 242.165 233.5 241 235.301 240.152C237.137 239.305 239.133 238.881 241.287 238.881C243.512 238.881 245.56 239.287 247.432 240.099C249.339 240.876 250.91 241.847 252.146 243.013C253.418 244.143 254.265 245.202 254.689 246.191L251.405 248.098C250.663 246.544 249.339 245.167 247.432 243.966C245.525 242.765 243.424 242.165 241.128 242.165C239.821 242.165 238.568 242.43 237.367 242.96C236.166 243.454 235.195 244.196 234.453 245.185C233.747 246.138 233.394 247.268 233.394 248.575C233.394 250.376 234.047 251.806 235.354 252.866C236.696 253.89 238.55 254.667 240.916 255.196L246.319 256.468C252.323 257.845 255.325 260.9 255.325 265.632C255.325 267.68 254.76 269.499 253.63 271.088C252.535 272.642 251.016 273.861 249.074 274.743C247.132 275.626 244.977 276.068 242.611 276.068ZM273.326 276.068C270.89 276.068 268.629 275.485 266.546 274.32C264.462 273.154 262.802 271.512 261.566 269.393C260.33 267.274 259.712 264.89 259.712 262.242C259.712 259.629 260.277 257.28 261.407 255.196C262.537 253.113 264.056 251.488 265.963 250.323C267.905 249.158 270.042 248.575 272.373 248.575C274.88 248.575 277.052 249.105 278.888 250.164C280.76 251.223 282.208 252.671 283.232 254.508C284.256 256.309 284.857 258.357 285.033 260.653C285.069 261.112 285.086 261.995 285.086 263.301H263.367C263.509 265.279 264.056 266.992 265.01 268.44C265.963 269.888 267.164 271 268.612 271.777C270.095 272.519 271.702 272.889 273.432 272.889C275.233 272.889 276.805 272.448 278.147 271.565C279.524 270.647 280.548 269.481 281.219 268.069L284.186 269.817C283.232 271.653 281.784 273.154 279.842 274.32C277.9 275.485 275.728 276.068 273.326 276.068ZM281.378 260.282C281.308 257.88 280.513 255.85 278.994 254.19C277.476 252.495 275.269 251.647 272.373 251.647C270.113 251.647 268.135 252.389 266.44 253.872C264.78 255.355 263.774 257.492 263.42 260.282H281.378ZM290.902 249.158H294.398V254.084C295.281 252.495 296.535 251.17 298.159 250.111C299.819 249.016 301.585 248.557 303.457 248.734L303.351 252.283C302.892 252.177 302.485 252.124 302.132 252.124C300.755 252.124 299.466 252.548 298.265 253.395C297.1 254.243 296.164 255.355 295.458 256.733C294.751 258.075 294.398 259.452 294.398 260.865V275.485H290.902V249.158ZM304.928 249.158H308.795L317.377 271.777L325.8 249.158H329.667L319.443 275.485H315.417L304.928 249.158ZM337.941 249.158V275.485H334.444V249.158H337.941ZM336.192 244.443C335.451 244.443 334.815 244.178 334.285 243.648C333.756 243.119 333.491 242.483 333.491 241.741C333.491 240.964 333.756 240.311 334.285 239.781C334.815 239.216 335.451 238.934 336.192 238.934C336.934 238.934 337.57 239.216 338.1 239.781C338.629 240.311 338.894 240.964 338.894 241.741C338.894 242.483 338.629 243.119 338.1 243.648C337.57 244.178 336.934 244.443 336.192 244.443ZM357.042 276.068C354.5 276.068 352.222 275.45 350.209 274.214C348.196 272.978 346.624 271.3 345.494 269.181C344.364 267.062 343.799 264.714 343.799 262.136C343.799 259.593 344.347 257.298 345.441 255.249C346.571 253.166 348.125 251.541 350.103 250.376C352.116 249.175 354.394 248.575 356.937 248.575C359.338 248.575 361.457 249.122 363.293 250.217C365.165 251.312 366.595 252.671 367.584 254.296L364.565 256.044C363.894 254.808 362.852 253.766 361.439 252.919C360.062 252.071 358.543 251.647 356.884 251.647C355.012 251.647 353.352 252.124 351.904 253.078C350.456 254.031 349.344 255.32 348.567 256.945C347.79 258.534 347.401 260.317 347.401 262.295C347.401 264.308 347.807 266.127 348.62 267.751C349.467 269.376 350.615 270.647 352.063 271.565C353.546 272.483 355.206 272.942 357.042 272.942C358.844 272.942 360.433 272.483 361.81 271.565C363.223 270.612 364.264 269.411 364.935 267.963L367.849 269.658C366.86 271.53 365.412 273.066 363.505 274.267C361.633 275.467 359.479 276.068 357.042 276.068ZM384.64 276.068C382.203 276.068 379.943 275.485 377.859 274.32C375.775 273.154 374.116 271.512 372.88 269.393C371.644 267.274 371.025 264.89 371.025 262.242C371.025 259.629 371.591 257.28 372.721 255.196C373.851 253.113 375.369 251.488 377.276 250.323C379.219 249.158 381.355 248.575 383.686 248.575C386.193 248.575 388.365 249.105 390.202 250.164C392.073 251.223 393.521 252.671 394.546 254.508C395.57 256.309 396.17 258.357 396.347 260.653C396.382 261.112 396.4 261.995 396.4 263.301H374.681C374.822 265.279 375.369 266.992 376.323 268.44C377.276 269.888 378.477 271 379.925 271.777C381.408 272.519 383.015 272.889 384.746 272.889C386.547 272.889 388.118 272.448 389.46 271.565C390.837 270.647 391.862 269.481 392.533 268.069L395.499 269.817C394.546 271.653 393.098 273.154 391.155 274.32C389.213 275.485 387.041 276.068 384.64 276.068ZM392.691 260.282C392.621 257.88 391.826 255.85 390.308 254.19C388.789 252.495 386.582 251.647 383.686 251.647C381.426 251.647 379.448 252.389 377.753 253.872C376.093 255.355 375.087 257.492 374.734 260.282H392.691ZM402.726 239.463H407.918L425.187 270.929V239.463H428.842V275.485H423.863L406.382 243.807V275.485H402.726V239.463ZM448.134 276.068C445.733 276.068 443.543 275.467 441.566 274.267C439.623 273.031 438.069 271.371 436.904 269.287C435.774 267.168 435.209 264.838 435.209 262.295C435.209 259.681 435.774 257.333 436.904 255.249C438.069 253.166 439.623 251.541 441.566 250.376C443.543 249.175 445.733 248.575 448.134 248.575C450.536 248.575 452.708 249.175 454.65 250.376C456.628 251.541 458.181 253.166 459.311 255.249C460.477 257.333 461.06 259.681 461.06 262.295C461.06 264.838 460.477 267.168 459.311 269.287C458.181 271.371 456.628 273.031 454.65 274.267C452.708 275.467 450.536 276.068 448.134 276.068ZM448.134 272.942C449.971 272.942 451.595 272.483 453.008 271.565C454.42 270.647 455.515 269.376 456.292 267.751C457.069 266.127 457.457 264.308 457.457 262.295C457.457 260.317 457.069 258.516 456.292 256.892C455.515 255.267 454.42 253.996 453.008 253.078C451.595 252.124 449.971 251.647 448.134 251.647C446.298 251.647 444.673 252.124 443.261 253.078C441.848 253.996 440.753 255.267 439.976 256.892C439.199 258.516 438.811 260.317 438.811 262.295C438.811 264.308 439.199 266.127 439.976 267.751C440.753 269.376 441.848 270.647 443.261 271.565C444.673 272.483 446.298 272.942 448.134 272.942ZM463.848 249.158H467.556L473.489 271.777L479.475 249.158H484.084L490.335 271.883L496.374 249.158H500.029L492.612 275.485H488.11L481.806 252.813L475.661 275.485H471.211L463.848 249.158Z" fill="#0D0D17"/>
<path d="M510.085 114.943H513.337C513.681 114.943 514.026 114.993 514.351 115.108C514.64 115.217 514.91 115.382 515.145 115.592C515.365 115.807 515.544 116.067 515.659 116.356C515.774 116.671 515.829 117.006 515.824 117.34C515.834 117.61 515.784 117.88 515.684 118.134C515.609 118.344 515.494 118.544 515.35 118.719C515.225 118.869 515.08 118.999 514.92 119.109C514.78 119.193 514.63 119.263 514.475 119.318V119.388L514.56 119.528C514.595 119.603 514.64 119.678 514.685 119.753L516.074 122.53H514.116L512.837 119.753H511.838V122.53H510.09V114.943H510.085ZM512.972 118.484C513.272 118.504 513.566 118.394 513.776 118.179C513.991 117.955 514.101 117.655 514.081 117.345C514.101 117.041 513.996 116.736 513.791 116.511C513.576 116.311 513.292 116.206 512.997 116.221H511.833V118.484H512.972Z" fill="#0D0D17"/>
<path d="M512.762 111.307C508.626 111.307 505.27 114.663 505.27 118.799C505.27 122.935 508.626 126.291 512.762 126.291C516.898 126.291 520.254 122.935 520.254 118.799C520.254 114.663 516.898 111.307 512.762 111.307ZM512.762 124.593C509.565 124.593 506.968 122.001 506.968 118.799C506.968 115.597 509.56 113.005 512.762 113.005C515.964 113.005 518.556 115.597 518.556 118.799C518.556 122.001 515.964 124.593 512.762 124.593Z" fill="#0D0D17"/>
<path d="M222.193 195.506H213.347C211.439 195.516 209.886 193.977 209.876 192.074C209.876 192.059 209.876 192.049 209.876 192.034V117.006C209.866 115.098 211.404 113.544 213.308 113.534H247.168C251.104 113.494 255.01 114.179 258.696 115.552C261.973 116.946 264.97 118.914 267.542 121.376C268.806 122.635 269.93 124.024 270.904 125.517C271.888 127.035 272.712 128.649 273.371 130.332C274.735 133.983 275.419 137.854 275.379 141.755C275.379 148.104 273.846 153.513 270.784 157.994C268.431 161.555 265.245 164.487 261.493 166.53C260.734 166.9 260.165 167.569 259.925 168.378C259.705 169.187 259.915 170.057 260.484 170.676C263.242 174.407 265.869 177.939 268.366 181.26C270.859 184.582 273.456 188.108 276.153 191.844C276.723 192.529 276.913 193.453 276.658 194.307C276.423 195.116 275.589 195.541 274.805 195.541H263.511C262.457 195.521 261.423 195.251 260.489 194.751C259.54 194.307 258.701 193.658 258.027 192.848C256.753 191.13 255.505 189.437 254.276 187.754L250.52 182.659L243.132 172.244C242.483 171.385 241.634 170.691 240.665 170.226C239.731 169.737 238.697 169.467 237.643 169.447H229.022C227.128 169.422 225.575 170.936 225.55 172.829C225.55 172.859 225.55 172.884 225.55 172.914V192.064C225.57 192.978 225.225 193.862 224.596 194.527C223.972 195.186 223.093 195.541 222.188 195.511M229.026 155.526H247.168C248.666 155.496 250.145 155.192 251.534 154.632C253.087 154.088 254.501 153.204 255.679 152.055C256.883 150.811 257.867 149.373 258.586 147.799C259.401 145.891 259.785 143.823 259.71 141.75C259.7 140.322 259.55 138.893 259.256 137.495C259.111 136.671 258.891 135.866 258.601 135.087C258.307 134.308 257.972 133.539 257.597 132.795C256.643 131.246 255.34 129.938 253.786 128.988C251.768 127.87 249.486 127.325 247.183 127.42H229.026C227.128 127.4 225.57 128.929 225.555 130.827C225.555 130.847 225.555 130.872 225.555 130.892V152.055C225.535 153.953 227.064 155.511 228.962 155.526H229.026Z" fill="#0D0D17"/>
<path d="M435.007 181.954L439.707 175.006C440.166 174.232 440.95 173.698 441.84 173.558C442.734 173.408 443.653 173.608 444.407 174.117C447.579 176.105 450.865 177.898 454.257 179.487C458.548 181.59 463.268 182.664 468.048 182.624C470.335 182.674 472.613 182.344 474.791 181.645C476.569 181.125 478.237 180.291 479.716 179.177C480.96 178.248 481.989 177.069 482.743 175.711C483.402 174.552 483.752 173.238 483.747 171.9C483.747 170.341 483.192 168.828 482.178 167.644C481.02 166.465 479.651 165.516 478.148 164.842C477.273 164.447 476.379 164.113 475.46 163.838C474.486 163.543 473.392 163.243 472.179 162.939C471.065 162.644 469.921 162.379 468.762 162.16C467.608 161.935 466.395 161.715 465.126 161.5L462.434 160.996C461.47 160.811 460.466 160.601 459.412 160.381C455.191 159.437 449.402 157.594 445.895 155.866C443.658 154.747 441.615 153.274 439.847 151.5C437.974 149.737 436.485 147.599 435.481 145.232C434.392 142.52 433.858 139.618 433.918 136.696C433.918 131.99 434.887 127.994 436.825 124.713C438.673 121.671 441.2 119.103 444.212 117.21C447.349 115.412 450.75 114.129 454.292 113.399C457.828 112.65 461.43 112.27 465.046 112.275C468.123 112.245 471.195 112.465 474.237 112.935C475.535 113.15 476.824 113.429 478.098 113.774C480.2 114.343 483.502 115.512 485.215 116.346C486.329 116.911 487.413 117.49 488.457 118.079C489.206 118.534 491.933 120.167 492.823 120.737C493.712 121.306 494.121 122.06 494.281 122.974C494.436 123.889 494.196 124.823 493.627 125.547L488.917 132.27C488.387 133.049 487.558 133.574 486.624 133.724C485.71 133.878 484.771 133.679 483.997 133.164C481.394 131.456 478.617 130.032 475.71 128.908C472.114 127.475 468.273 126.751 464.402 126.781C463.742 126.781 462.998 126.821 462.214 126.89C461.435 126.96 460.625 127.075 459.806 127.225C458.108 127.595 456.455 128.159 454.881 128.908C454.162 129.268 453.468 129.678 452.808 130.137C452.169 130.587 451.585 131.116 451.075 131.706C450.106 132.909 449.587 134.413 449.617 135.961C449.587 137.54 450.241 139.048 451.41 140.107C452.753 141.321 454.312 142.27 456.005 142.909C456.974 143.284 457.963 143.618 458.972 143.913C459.986 144.218 461.045 144.513 462.164 144.812C463.283 145.117 464.392 145.372 465.45 145.591C466.504 145.816 476.259 147.849 477.413 148.114C478.567 148.379 481.174 149.128 482.618 149.627C484.531 150.282 486.389 151.141 487.543 151.74C488.577 152.265 489.566 152.859 490.51 153.533C491.074 153.888 491.619 154.283 492.133 154.707C492.618 155.122 493.082 155.546 493.537 156.021C495.39 157.869 496.838 160.082 497.792 162.514C498.981 165.506 499.551 168.708 499.476 171.925C499.551 175.741 498.786 179.522 497.238 183.008C495.795 186.08 493.602 188.737 490.855 190.735C487.918 192.948 484.571 194.552 481.005 195.446C476.874 196.51 472.618 197.034 468.353 197.009C464.526 197.094 460.705 196.789 456.949 196.095C453.907 195.565 450.935 194.681 448.098 193.468C446.76 192.953 445.446 192.374 444.157 191.734C442.868 191.095 441.64 190.406 440.466 189.666C439.717 189.212 438.967 188.752 438.228 188.268C437.484 187.783 436.69 187.239 435.871 186.64C435.091 186.185 434.557 185.406 434.422 184.512C434.282 183.618 434.487 182.704 435.002 181.959" fill="#0D0D17"/>
<path d="M138.154 182.274C137.11 182.294 136.091 182.609 135.222 183.193C134.338 183.733 133.609 184.487 133.089 185.386L129.643 192.284C128.579 194.457 126.351 195.506 124.578 195.506H114.053C112.105 195.506 111.476 193.962 112.275 192.394L152.185 112.69C152.649 111.761 153.638 111.306 154.467 111.306C155.296 111.306 156.29 111.761 156.75 112.69L196.659 192.394C197.458 193.962 196.829 195.506 194.881 195.506H184.357C182.589 195.506 180.356 194.457 179.292 192.284L175.845 185.386C175.331 184.492 174.597 183.738 173.713 183.193C172.844 182.614 171.825 182.294 170.781 182.274H138.144H138.154ZM152.964 146.046L143.993 165.022C143.613 165.716 143.588 166.55 143.933 167.259C144.358 167.959 145.147 168.338 145.956 168.238H162.989C163.798 168.343 164.587 167.959 165.011 167.259C165.356 166.545 165.331 165.711 164.952 165.022L155.981 146.046C155.596 145.122 155.087 144.662 154.472 144.662C153.858 144.662 153.348 145.122 152.964 146.046Z" fill="#0D0D17"/>
<path d="M376.516 115.327V192.034C376.531 192.948 376.171 193.832 375.522 194.472C374.923 195.141 374.064 195.521 373.164 195.506H364.313C363.389 195.526 362.5 195.151 361.876 194.472C361.217 193.832 360.842 192.953 360.842 192.034V157.549C360.842 156.555 360.637 155.981 360.263 155.811C359.888 155.646 359.314 155.811 358.734 156.76L337.606 182.149C337.111 182.879 336.292 183.313 335.413 183.313C334.534 183.313 333.715 182.879 333.22 182.149L311.927 156.68C311.347 155.936 310.808 155.646 310.398 155.771C309.984 155.896 309.694 156.475 309.694 157.464V191.949C309.709 192.863 309.35 193.747 308.7 194.387C308.061 195.071 307.157 195.446 306.218 195.421H297.492C295.584 195.396 294.04 193.857 294.015 191.949V115.327C293.97 114.923 294.09 114.513 294.345 114.194C294.6 113.874 294.974 113.669 295.379 113.629C296.233 113.489 297.097 113.844 297.611 114.538L332.965 158.329C333.545 158.958 334.364 159.318 335.218 159.318C336.072 159.318 336.891 158.958 337.471 158.329L372.95 114.663C373.459 113.959 374.328 113.604 375.182 113.754C375.972 113.844 376.556 114.533 376.506 115.327" fill="#0D0D17"/>
<path d="M410.861 195.506H402.015C401.101 195.541 400.217 195.161 399.617 194.472C398.978 193.822 398.633 192.943 398.668 192.034V117.151C398.628 116.226 398.973 115.332 399.617 114.668C400.232 114.004 401.111 113.639 402.015 113.674H410.861C411.775 113.659 412.659 114.019 413.298 114.668C413.973 115.317 414.342 116.216 414.332 117.151V192.034C414.332 192.953 413.958 193.832 413.298 194.472C412.669 195.151 411.785 195.526 410.861 195.506Z" fill="#0D0D17"/>
<path d="M105.907 2.48746C107.151 0.829155 108.394 0 110.462 0C112.53 0 113.364 0.414577 115.018 2.48746L166.84 74.9835H139.483C134.098 74.9835 130.367 77.0564 127.47 81.1972L93.5196 148.723H0L105.907 2.48746Z" fill="#4E1683"/>
</svg>
